<svg width="46" height="24" viewBox="0 0 46 24" fill="none" xmlns="http://www.w3.org/2000/svg">
<path d="M11.5 6.60938C8.5 6.60938 6.10938 9.04688 6.10938 12C6.10938 15 8.5 17.3906 11.5 17.3906C14.4531 17.3906 16.8906 15 16.8906 12C16.8906 9.04688 14.4531 6.60938 11.5 6.60938ZM11.5 15.5156C9.57812 15.5156 7.98438 13.9688 7.98438 12C7.98438 10.0781 9.53125 8.53125 11.5 8.53125C13.4219 8.53125 14.9688 10.0781 14.9688 12C14.9688 13.9688 13.4219 15.5156 11.5 15.5156ZM18.3438 6.42188C18.3438 5.71875 17.7812 5.15625 17.0781 5.15625C16.375 5.15625 15.8125 5.71875 15.8125 6.42188C15.8125 7.125 16.375 7.6875 17.0781 7.6875C17.7812 7.6875 18.3438 7.125 18.3438 6.42188ZM21.9062 7.6875C21.8125 6 21.4375 4.5 20.2188 3.28125C19 2.0625 17.5 1.6875 15.8125 1.59375C14.0781 1.5 8.875 1.5 7.14062 1.59375C5.45312 1.6875 4 2.0625 2.73438 3.28125C1.51562 4.5 1.14062 6 1.04688 7.6875C0.953125 9.42188 0.953125 14.625 1.04688 16.3594C1.14062 18.0469 1.51562 19.5 2.73438 20.7656C4 21.9844 5.45312 22.3594 7.14062 22.4531C8.875 22.5469 14.0781 22.5469 15.8125 22.4531C17.5 22.3594 19 21.9844 20.2188 20.7656C21.4375 19.5 21.8125 18.0469 21.9062 16.3594C22 14.625 22 9.42188 21.9062 7.6875ZM19.6562 18.1875C19.3281 19.125 18.5781 19.8281 17.6875 20.2031C16.2812 20.7656 13 20.625 11.5 20.625C9.95312 20.625 6.67188 20.7656 5.3125 20.2031C4.375 19.8281 3.67188 19.125 3.29688 18.1875C2.73438 16.8281 2.875 13.5469 2.875 12C2.875 10.5 2.73438 7.21875 3.29688 5.8125C3.67188 4.92188 4.375 4.21875 5.3125 3.84375C6.67188 3.28125 9.95312 3.42188 11.5 3.42188C13 3.42188 16.2812 3.28125 17.6875 3.84375C18.5781 4.17188 19.2812 4.92188 19.6562 5.8125C20.2188 7.21875 20.0781 10.5 20.0781 12C20.0781 13.5469 20.2188 16.8281 19.6562 18.1875ZM44.4531 13.5L45.1094 9.1875H40.9375V6.375C40.9375 5.15625 41.5 4.03125 43.375 4.03125H45.2969V0.328125C45.2969 0.328125 43.5625 0 41.9219 0C38.5 0 36.25 2.10938 36.25 5.85938V9.1875H32.4062V13.5H36.25V24H40.9375V13.5H44.4531Z" fill="white"/>
</svg>
