<svg width="285" height="28" viewBox="0 0 285 28" fill="none" xmlns="http://www.w3.org/2000/svg">
<path d="M24.156 5.012L23.465 5.73489L23.4697 5.7393L24.156 5.012ZM5.22 5.012L5.90634 5.73931L5.91098 5.73487L5.22 5.012ZM5.22 22.976L4.52832 23.6982L4.52902 23.6989L5.22 22.976ZM24.156 22.976L24.847 23.6989L24.8477 23.6982L24.156 22.976ZM19.512 9.404L20.2075 8.68535L20.1992 8.67753L19.512 9.404ZM19.512 18.62L20.2191 19.3271L19.512 18.62ZM9.828 18.584L10.5238 17.8658L10.5205 17.8626L9.828 18.584ZM9.828 9.404L10.5251 10.1211L10.5351 10.1111L9.828 9.404ZM28.936 14.012C28.936 10.5673 27.6223 6.9081 24.8423 4.2847L23.4697 5.7393C25.8017 7.93989 26.936 11.0487 26.936 14.012H28.936ZM24.847 4.28913C22.1862 1.74571 18.4699 0.447998 14.688 0.447998V2.448C18.0341 2.448 21.2298 3.59829 23.465 5.73487L24.847 4.28913ZM14.688 0.447998C10.9061 0.447998 7.18982 1.74571 4.52902 4.28913L5.91098 5.73487C8.14618 3.59829 11.3419 2.448 14.688 2.448V0.447998ZM4.53368 4.2847C1.75365 6.9081 0.44 10.5673 0.44 14.012H2.44C2.44 11.0487 3.57435 7.93989 5.90632 5.7393L4.53368 4.2847ZM0.44 14.012C0.44 17.4269 1.75747 21.0444 4.52832 23.6982L5.91168 22.2538C3.57053 20.0116 2.44 16.9331 2.44 14.012H0.44ZM4.52902 23.6989C7.18982 26.2423 10.9061 27.54 14.688 27.54V25.54C11.3419 25.54 8.14618 24.3897 5.91098 22.2531L4.52902 23.6989ZM14.688 27.54C18.4699 27.54 22.1862 26.2423 24.847 23.6989L23.465 22.2531C21.2298 24.3897 18.0341 25.54 14.688 25.54V27.54ZM24.8477 23.6982C27.6185 21.0444 28.936 17.4269 28.936 14.012H26.936C26.936 16.9331 25.8055 20.0116 23.4643 22.2538L24.8477 23.6982ZM14.688 8.496C16.1064 8.496 17.6912 9.05812 18.8248 10.1305L20.1992 8.67753C18.6688 7.22987 16.5816 6.496 14.688 6.496V8.496ZM18.8166 10.1226C19.7546 11.0303 20.456 12.4333 20.456 14.012H22.456C22.456 11.8467 21.5014 9.93765 20.2074 8.6854L18.8166 10.1226ZM20.456 14.012C20.456 15.5493 19.7585 16.9593 18.8049 17.9129L20.2191 19.3271C21.4975 18.0487 22.456 16.1467 22.456 14.012H20.456ZM18.8049 17.9129C17.88 18.8378 16.5519 19.492 14.688 19.492V21.492C17.0721 21.492 18.912 20.6342 20.2191 19.3271L18.8049 17.9129ZM14.688 19.492C12.874 19.492 11.4997 18.8112 10.5238 17.8658L9.13221 19.3022C10.4603 20.5888 12.326 21.492 14.688 21.492V19.492ZM10.5205 17.8626C9.7576 17.1302 8.92 15.8991 8.92 14.12H6.92C6.92 16.5889 8.0984 18.3098 9.13547 19.3054L10.5205 17.8626ZM8.92 14.12C8.92 12.6549 9.45165 11.1646 10.5251 10.121L9.13092 8.687C7.61235 10.1634 6.92 12.2011 6.92 14.12H8.92ZM10.5351 10.1111C11.6115 9.03474 13.1761 8.496 14.688 8.496V6.496C12.7439 6.496 10.6365 7.18126 9.12089 8.69689L10.5351 10.1111ZM45.6626 1.988H46.6626V0.987998H45.6626V1.988ZM31.9106 1.988V0.987998H30.9106V1.988H31.9106ZM31.9106 26H30.9106V27H31.9106V26ZM38.1386 26V27H39.1386V26H38.1386ZM38.1386 16.568V15.568H37.1386V16.568H38.1386ZM44.9786 16.568V17.568H45.9786V16.568H44.9786ZM44.9786 11.276H45.9786V10.276H44.9786V11.276ZM38.1386 11.276H37.1386V12.276H38.1386V11.276ZM38.1386 7.28V6.28H37.1386V7.28H38.1386ZM45.6626 7.28V8.28H46.6626V7.28H45.6626ZM45.6626 0.987998H31.9106V2.988H45.6626V0.987998ZM30.9106 1.988V26H32.9106V1.988H30.9106ZM31.9106 27H38.1386V25H31.9106V27ZM39.1386 26V16.568H37.1386V26H39.1386ZM38.1386 17.568H44.9786V15.568H38.1386V17.568ZM45.9786 16.568V11.276H43.9786V16.568H45.9786ZM44.9786 10.276H38.1386V12.276H44.9786V10.276ZM39.1386 11.276V7.28H37.1386V11.276H39.1386ZM38.1386 8.28H45.6626V6.28H38.1386V8.28ZM46.6626 7.28V1.988H44.6626V7.28H46.6626ZM63.1353 1.988H64.1353V0.987998H63.1353V1.988ZM49.3833 1.988V0.987998H48.3833V1.988H49.3833ZM49.3833 26H48.3833V27H49.3833V26ZM55.6113 26V27H56.6113V26H55.6113ZM55.6113 16.568V15.568H54.6113V16.568H55.6113ZM62.4513 16.568V17.568H63.4513V16.568H62.4513ZM62.4513 11.276H63.4513V10.276H62.4513V11.276ZM55.6113 11.276H54.6113V12.276H55.6113V11.276ZM55.6113 7.28V6.28H54.6113V7.28H55.6113ZM63.1353 7.28V8.28H64.1353V7.28H63.1353ZM63.1353 0.987998H49.3833V2.988H63.1353V0.987998ZM48.3833 1.988V26H50.3833V1.988H48.3833ZM49.3833 27H55.6113V25H49.3833V27ZM56.6113 26V16.568H54.6113V26H56.6113ZM55.6113 17.568H62.4513V15.568H55.6113V17.568ZM63.4513 16.568V11.276H61.4513V16.568H63.4513ZM62.4513 10.276H55.6113V12.276H62.4513V10.276ZM56.6113 11.276V7.28H54.6113V11.276H56.6113ZM55.6113 8.28H63.1353V6.28H55.6113V8.28ZM64.1353 7.28V1.988H62.1353V7.28H64.1353ZM66.8559 1.988V0.987998H65.8559V1.988H66.8559ZM66.8559 26H65.8559V27H66.8559V26ZM73.0839 26V27H74.0839V26H73.0839ZM73.0839 16.784L73.923 16.2399L72.0839 13.4038V16.784H73.0839ZM79.0599 26L78.2209 26.5441L78.5165 27H79.0599V26ZM86.7999 26V27H88.8249L87.594 25.3921L86.7999 26ZM79.2759 16.172L79.0859 15.1902L77.4999 15.4972L78.4819 16.7799L79.2759 16.172ZM82.5879 14.516L83.2811 15.2368L83.2841 15.2339L82.5879 14.516ZM82.4439 4.112L81.7228 4.80484L81.7277 4.80986L82.4439 4.112ZM73.0839 6.812V5.812H72.0839V6.812H73.0839ZM77.2599 7.748L76.5528 8.45511L76.565 8.46729L76.5776 8.47905L77.2599 7.748ZM77.2959 11.78L77.9856 12.5041L77.9944 12.4957L78.003 12.4871L77.2959 11.78ZM73.0839 12.752H72.0839V13.752H73.0839V12.752ZM65.8559 1.988V26H67.8559V1.988H65.8559ZM66.8559 27H73.0839V25H66.8559V27ZM74.0839 26V16.784H72.0839V26H74.0839ZM72.2449 17.3281L78.2209 26.5441L79.899 25.4559L73.923 16.2399L72.2449 17.3281ZM79.0599 27H86.7999V25H79.0599V27ZM87.594 25.3921L80.07 15.5641L78.4819 16.7799L86.0059 26.6079L87.594 25.3921ZM79.466 17.1538C80.7272 16.9097 82.1768 16.2986 83.281 15.2368L81.8948 13.7952C81.127 14.5334 80.0567 15.0023 79.0859 15.1902L79.466 17.1538ZM83.2841 15.2339C84.6981 13.8627 85.4959 11.7868 85.4959 9.512H83.4959C83.4959 11.3412 82.8538 12.8653 81.8918 13.7981L83.2841 15.2339ZM85.4959 9.512C85.4959 7.39721 84.7446 5.04023 83.1602 3.41413L81.7277 4.80986C82.8793 5.99177 83.4959 7.81079 83.4959 9.512H85.4959ZM83.165 3.41917C81.1123 1.28269 78.4581 0.987998 76.5759 0.987998V2.988C78.2938 2.988 80.2475 3.26931 81.7228 4.80482L83.165 3.41917ZM76.5759 0.987998H66.8559V2.988H76.5759V0.987998ZM73.0839 7.812H74.2719V5.812H73.0839V7.812ZM74.2719 7.812C75.5041 7.812 76.2394 8.14171 76.5528 8.45511L77.967 7.04089C77.1284 6.20229 75.7758 5.812 74.2719 5.812V7.812ZM76.5776 8.47905C76.8826 8.76369 77.0879 9.27352 77.0879 9.764H79.0879C79.0879 8.81448 78.7173 7.74031 77.9423 7.01694L76.5776 8.47905ZM77.0879 9.764C77.0879 10.2759 76.8549 10.8069 76.5888 11.0729L78.003 12.4871C78.673 11.8171 79.0879 10.7641 79.0879 9.764H77.0879ZM76.6063 11.0559C76.3891 11.2627 76.037 11.4451 75.5809 11.5733C75.1342 11.6988 74.6591 11.752 74.2719 11.752V13.752C74.8207 13.752 75.4797 13.6792 76.122 13.4987C76.7548 13.3209 77.4468 13.0173 77.9856 12.5041L76.6063 11.0559ZM74.2719 11.752H73.0839V13.752H74.2719V11.752ZM74.0839 12.752V6.812H72.0839V12.752H74.0839ZM111.062 5.012L110.371 5.73489L110.376 5.7393L111.062 5.012ZM92.1263 5.012L92.8126 5.73931L92.8172 5.73487L92.1263 5.012ZM92.1263 22.976L91.4346 23.6982L91.4353 23.6989L92.1263 22.976ZM111.062 22.976L111.753 23.6989L111.754 23.6982L111.062 22.976ZM106.418 9.404L107.114 8.68535L107.105 8.67753L106.418 9.404ZM106.418 18.62L107.125 19.3271L106.418 18.62ZM96.7343 18.584L97.4301 17.8658L97.4268 17.8626L96.7343 18.584ZM96.7343 9.404L97.4314 10.1211L97.4414 10.1111L96.7343 9.404ZM115.842 14.012C115.842 10.5673 114.529 6.9081 111.749 4.2847L110.376 5.7393C112.708 7.93989 113.842 11.0487 113.842 14.012H115.842ZM111.753 4.28913C109.092 1.74571 105.376 0.447998 101.594 0.447998V2.448C104.94 2.448 108.136 3.59829 110.371 5.73487L111.753 4.28913ZM101.594 0.447998C97.8124 0.447998 94.0961 1.74571 91.4353 4.28913L92.8172 5.73487C95.0524 3.59829 98.2481 2.448 101.594 2.448V0.447998ZM91.4399 4.2847C88.6599 6.9081 87.3463 10.5673 87.3463 14.012H89.3463C89.3463 11.0487 90.4806 7.93989 92.8126 5.7393L91.4399 4.2847ZM87.3463 14.012C87.3463 17.4269 88.6637 21.0444 91.4346 23.6982L92.8179 22.2538C90.4768 20.0116 89.3463 16.9331 89.3463 14.012H87.3463ZM91.4353 23.6989C94.0961 26.2423 97.8124 27.54 101.594 27.54V25.54C98.2481 25.54 95.0524 24.3897 92.8172 22.2531L91.4353 23.6989ZM101.594 27.54C105.376 27.54 109.092 26.2423 111.753 23.6989L110.371 22.2531C108.136 24.3897 104.94 25.54 101.594 25.54V27.54ZM111.754 23.6982C114.525 21.0444 115.842 17.4269 115.842 14.012H113.842C113.842 16.9331 112.712 20.0116 110.371 22.2538L111.754 23.6982ZM101.594 8.496C103.013 8.496 104.597 9.05812 105.731 10.1305L107.105 8.67753C105.575 7.22987 103.488 6.496 101.594 6.496V8.496ZM105.723 10.1226C106.661 11.0303 107.362 12.4333 107.362 14.012H109.362C109.362 11.8467 108.408 9.93765 107.114 8.6854L105.723 10.1226ZM107.362 14.012C107.362 15.5493 106.665 16.9593 105.711 17.9129L107.125 19.3271C108.404 18.0487 109.362 16.1467 109.362 14.012H107.362ZM105.711 17.9129C104.786 18.8378 103.458 19.492 101.594 19.492V21.492C103.978 21.492 105.818 20.6342 107.125 19.3271L105.711 17.9129ZM101.594 19.492C99.7802 19.492 98.406 18.8112 97.43 17.8658L96.0385 19.3022C97.3665 20.5888 99.2323 21.492 101.594 21.492V19.492ZM97.4268 17.8626C96.6639 17.1302 95.8262 15.8991 95.8262 14.12H93.8262C93.8262 16.5889 95.0046 18.3098 96.0417 19.3054L97.4268 17.8626ZM95.8262 14.12C95.8262 12.6549 96.3579 11.1646 97.4313 10.121L96.0372 8.687C94.5186 10.1634 93.8262 12.2011 93.8262 14.12H95.8262ZM97.4414 10.1111C98.5177 9.03474 100.082 8.496 101.594 8.496V6.496C99.6502 6.496 97.5428 7.18126 96.0271 8.69689L97.4414 10.1111ZM134.242 26L133.303 26.3438L133.543 27H134.242V26ZM140.902 26V27H142.347L141.838 25.6478L140.902 26ZM131.866 1.988L132.802 1.6358L132.558 0.987998H131.866V1.988ZM125.062 1.988V0.987998H124.374L124.128 1.62968L125.062 1.988ZM115.846 26L114.912 25.6417L114.391 27H115.846V26ZM122.434 26V27H123.11L123.362 26.3728L122.434 26ZM124.054 21.968V20.968H123.378L123.126 21.5952L124.054 21.968ZM132.766 21.968L133.705 21.6242L133.465 20.968H132.766V21.968ZM125.782 17.216L124.834 16.8958L124.388 18.216H125.782V17.216ZM128.41 9.44L129.354 9.11199L128.397 6.35451L127.462 9.11983L128.41 9.44ZM131.11 17.216V18.216H132.516L132.054 16.888L131.11 17.216ZM134.242 27H140.902V25H134.242V27ZM141.838 25.6478L132.802 1.6358L130.93 2.3402L139.966 26.3522L141.838 25.6478ZM131.866 0.987998H125.062V2.988H131.866V0.987998ZM124.128 1.62968L114.912 25.6417L116.779 26.3583L125.995 2.34632L124.128 1.62968ZM115.846 27H122.434V25H115.846V27ZM123.362 26.3728L124.982 22.3408L123.126 21.5952L121.506 25.6272L123.362 26.3728ZM124.054 22.968H132.766V20.968H124.054V22.968ZM131.827 22.3118L133.303 26.3438L135.181 25.6562L133.705 21.6242L131.827 22.3118ZM126.729 17.5362L129.357 9.76017L127.462 9.11983L124.834 16.8958L126.729 17.5362ZM127.465 9.76801L130.165 17.544L132.054 16.888L129.354 9.11199L127.465 9.76801ZM131.11 16.216H125.782V18.216H131.11V16.216ZM161.6 22.364L160.893 21.6569L161.6 22.364ZM161.384 5.3L160.69 6.01955L160.691 6.02083L161.384 5.3ZM143.672 1.988V0.987998H142.672V1.988H143.672ZM143.672 26H142.672V27H143.672V26ZM149.9 7.28V6.28H148.9V7.28H149.9ZM156.38 8.792L157.065 8.06314L157.06 8.05857L156.38 8.792ZM156.416 18.98L155.726 18.2566L155.717 18.265L156.416 18.98ZM149.9 20.708H148.9V21.708H149.9V20.708ZM152.384 27C156.775 27 160.227 25.1511 162.307 23.0711L160.893 21.6569C159.157 23.3929 156.202 25 152.384 25V27ZM162.307 23.0711C164.886 20.4925 165.732 17.3989 165.732 14.048H163.732C163.732 17.0331 162.995 19.5555 160.893 21.6569L162.307 23.0711ZM165.732 14.048C165.732 11.3352 165.169 7.55163 162.077 4.57917L160.691 6.02083C163.216 8.44837 163.732 11.5768 163.732 14.048H165.732ZM162.079 4.58045C158.689 1.30935 154.314 0.987998 151.844 0.987998V2.988C154.199 2.988 157.887 3.31465 160.69 6.01954L162.079 4.58045ZM151.844 0.987998H143.672V2.988H151.844V0.987998ZM142.672 1.988V26H144.672V1.988H142.672ZM143.672 27H152.384V25H143.672V27ZM149.9 8.28H151.412V6.28H149.9V8.28ZM151.412 8.28C152.941 8.28 154.529 8.43947 155.701 9.52543L157.06 8.05857C155.28 6.40853 152.98 6.28 151.412 6.28V8.28ZM155.696 9.52085C156.618 10.3876 157.252 11.9896 157.252 14.048H159.252C159.252 11.6424 158.518 9.42843 157.065 8.06315L155.696 9.52085ZM157.252 14.048C157.252 16.416 156.337 17.673 155.726 18.2566L157.107 19.7034C158.079 18.775 159.252 17.008 159.252 14.048H157.252ZM155.717 18.265C154.402 19.5509 152.644 19.708 151.16 19.708V21.708C152.701 21.708 155.191 21.5771 157.115 19.695L155.717 18.265ZM151.16 19.708H149.9V21.708H151.16V19.708ZM150.9 20.708V7.28H148.9V20.708H150.9ZM176.026 23.84L175.142 23.3727L174.726 24.1597L175.459 24.664L176.026 23.84ZM179.662 25.748L180.007 24.8093L180.004 24.8082L179.662 25.748ZM191.47 24.092L190.763 23.3849L191.47 24.092ZM192.19 13.76L191.454 14.4375L191.463 14.4466L192.19 13.76ZM187.834 11.384L188.13 10.4287L188.123 10.4267L187.834 11.384ZM185.926 10.808L186.215 9.85064L186.207 9.84826L185.926 10.808ZM183.838 9.728L183.049 10.3419L183.059 10.3552L183.07 10.3682L183.838 9.728ZM184.126 7.352L183.441 6.6238L183.43 6.63418L183.419 6.64489L184.126 7.352ZM190.282 8.252L189.663 9.03727L190.618 9.7908L191.172 8.70711L190.282 8.252ZM192.766 3.392L193.656 3.84711L194.107 2.96555L193.23 2.50617L192.766 3.392ZM179.194 3.716L179.901 4.42311V4.42311L179.194 3.716ZM178.366 13.76L179.109 13.091L179.102 13.0834L178.366 13.76ZM181.822 15.704L181.516 16.6561L181.525 16.6589L181.822 15.704ZM183.442 16.208L183.145 17.1629L183.153 17.1652L183.442 16.208ZM186.538 17.468L185.876 18.2178L185.882 18.2226L185.887 18.2273L186.538 17.468ZM186.61 20.42L185.903 19.7129L185.887 19.7283L185.873 19.7443L186.61 20.42ZM178.69 18.8L179.377 18.0735L178.421 17.169L177.806 18.3327L178.69 18.8ZM175.459 24.664C177.283 25.9177 178.881 26.528 179.32 26.6878L180.004 24.8082C179.651 24.68 178.225 24.1383 176.592 23.016L175.459 24.664ZM179.317 26.6867C181.221 27.3861 182.785 27.54 184.378 27.54V25.54C182.947 25.54 181.631 25.4059 180.007 24.8093L179.317 26.6867ZM184.378 27.54C187.031 27.54 189.845 27.1313 192.177 24.7991L190.763 23.3849C188.991 25.1567 186.837 25.54 184.378 25.54V27.54ZM192.177 24.7991C194.151 22.8253 194.738 20.4096 194.738 18.044H192.738C192.738 20.0704 192.245 21.9027 190.763 23.3849L192.177 24.7991ZM194.738 18.044C194.738 16.2197 194.368 14.6099 192.917 13.0734L191.463 14.4466C192.46 15.5021 192.738 16.5563 192.738 18.044H194.738ZM192.925 13.0825C191.466 11.4978 189.641 10.8966 188.13 10.4287L187.538 12.3393C189.051 12.8074 190.394 13.2862 191.454 14.4375L192.925 13.0825ZM188.123 10.4267L186.215 9.85067L185.637 11.7653L187.545 12.3413L188.123 10.4267ZM186.207 9.84826C184.864 9.45536 184.626 9.1113 184.606 9.08781L183.07 10.3682C183.41 10.7767 184.035 11.2966 185.645 11.7677L186.207 9.84826ZM184.627 9.11406C184.556 9.02242 184.514 8.94233 184.514 8.648H182.514C182.514 9.21767 182.616 9.78557 183.049 10.3419L184.627 9.11406ZM184.514 8.648C184.514 8.47674 184.572 8.3203 184.833 8.05911L183.419 6.64489C182.96 7.1037 182.514 7.73926 182.514 8.648H184.514ZM184.811 8.0802C185.158 7.75414 185.684 7.632 186.178 7.632V5.632C185.448 5.632 184.318 5.79786 183.441 6.6238L184.811 8.0802ZM186.178 7.632C186.816 7.632 187.993 7.72051 189.663 9.03727L190.901 7.46673C188.827 5.83148 187.196 5.632 186.178 5.632V7.632ZM191.172 8.70711L193.656 3.84711L191.876 2.93689L189.392 7.79689L191.172 8.70711ZM193.23 2.50617C190.841 1.25493 187.911 0.447998 185.35 0.447998V2.448C187.541 2.448 190.155 3.15307 192.302 4.27783L193.23 2.50617ZM185.35 0.447998C182.18 0.447998 179.906 1.58963 178.487 3.00889L179.901 4.42311C180.93 3.39437 182.688 2.448 185.35 2.448V0.447998ZM178.487 3.00889C177.279 4.21691 175.998 6.26327 175.998 9.512H177.998C177.998 6.85672 179.021 5.30309 179.901 4.42311L178.487 3.00889ZM175.998 9.512C175.998 10.7845 176.136 12.8117 177.63 14.4366L179.102 13.0834C178.147 12.0443 177.998 10.6875 177.998 9.512H175.998ZM177.623 14.429C178.792 15.7287 180.51 16.3326 181.516 16.656L182.128 14.752C181.118 14.4274 179.883 13.9513 179.109 13.091L177.623 14.429ZM181.525 16.6589L183.145 17.1629L183.739 15.2531L182.119 14.7491L181.525 16.6589ZM183.153 17.1652C183.95 17.4062 184.525 17.5732 184.99 17.7473C185.445 17.9182 185.702 18.0644 185.876 18.2178L187.2 16.7182C186.761 16.3316 186.245 16.0818 185.692 15.8747C185.148 15.6708 184.482 15.4778 183.731 15.2508L183.153 17.1652ZM185.887 18.2273C186.148 18.4509 186.222 18.7025 186.222 18.908H188.222C188.222 18.1775 187.936 17.3491 187.189 16.7087L185.887 18.2273ZM186.222 18.908C186.222 19.2464 186.081 19.5344 185.903 19.7129L187.317 21.1271C187.859 20.5856 188.222 19.7936 188.222 18.908H186.222ZM185.873 19.7443C185.709 19.9231 185.248 20.248 184.198 20.248V22.248C185.668 22.248 186.719 21.7809 187.347 21.0957L185.873 19.7443ZM184.198 20.248C182.387 20.248 180.604 19.2345 179.377 18.0735L178.003 19.5265C179.439 20.8855 181.689 22.248 184.198 22.248V20.248ZM177.806 18.3327L175.142 23.3727L176.91 24.3073L179.574 19.2673L177.806 18.3327ZM211.316 1.988H212.316V0.987998H211.316V1.988ZM197.672 1.988V0.987998H196.672V1.988H197.672ZM197.672 26H196.672V27H197.672V26ZM211.316 26V27H212.316V26H211.316ZM211.316 20.708H212.316V19.708H211.316V20.708ZM203.9 20.708H202.9V21.708H203.9V20.708ZM203.9 16.568V15.568H202.9V16.568H203.9ZM210.92 16.568V17.568H211.92V16.568H210.92ZM210.92 11.276H211.92V10.276H210.92V11.276ZM203.9 11.276H202.9V12.276H203.9V11.276ZM203.9 7.28V6.28H202.9V7.28H203.9ZM211.316 7.28V8.28H212.316V7.28H211.316ZM211.316 0.987998H197.672V2.988H211.316V0.987998ZM196.672 1.988V26H198.672V1.988H196.672ZM197.672 27H211.316V25H197.672V27ZM212.316 26V20.708H210.316V26H212.316ZM211.316 19.708H203.9V21.708H211.316V19.708ZM204.9 20.708V16.568H202.9V20.708H204.9ZM203.9 17.568H210.92V15.568H203.9V17.568ZM211.92 16.568V11.276H209.92V16.568H211.92ZM210.92 10.276H203.9V12.276H210.92V10.276ZM204.9 11.276V7.28H202.9V11.276H204.9ZM203.9 8.28H211.316V6.28H203.9V8.28ZM212.316 7.28V1.988H210.316V7.28H212.316ZM215.286 1.988V0.987998H214.286V1.988H215.286ZM215.286 26H214.286V27H215.286V26ZM221.514 26V27H222.514V26H221.514ZM221.514 16.784L222.353 16.2399L220.514 13.4038V16.784H221.514ZM227.49 26L226.651 26.5441L226.946 27H227.49V26ZM235.23 26V27H237.255L236.024 25.3921L235.23 26ZM227.706 16.172L227.516 15.1902L225.93 15.4972L226.912 16.7799L227.706 16.172ZM231.018 14.516L231.711 15.2368L231.714 15.2339L231.018 14.516ZM230.874 4.112L230.152 4.80484L230.157 4.80986L230.874 4.112ZM221.514 6.812V5.812H220.514V6.812H221.514ZM225.69 7.748L224.983 8.45511L224.995 8.46729L225.007 8.47905L225.69 7.748ZM225.726 11.78L226.415 12.5041L226.424 12.4957L226.433 12.4871L225.726 11.78ZM221.514 12.752H220.514V13.752H221.514V12.752ZM214.286 1.988V26H216.286V1.988H214.286ZM215.286 27H221.514V25H215.286V27ZM222.514 26V16.784H220.514V26H222.514ZM220.675 17.3281L226.651 26.5441L228.329 25.4559L222.353 16.2399L220.675 17.3281ZM227.49 27H235.23V25H227.49V27ZM236.024 25.3921L228.5 15.5641L226.912 16.7799L234.436 26.6079L236.024 25.3921ZM227.896 17.1538C229.157 16.9097 230.607 16.2986 231.711 15.2368L230.325 13.7952C229.557 14.5334 228.486 15.0023 227.516 15.1902L227.896 17.1538ZM231.714 15.2339C233.128 13.8627 233.926 11.7868 233.926 9.512H231.926C231.926 11.3412 231.283 12.8653 230.321 13.7981L231.714 15.2339ZM233.926 9.512C233.926 7.39721 233.174 5.04023 231.59 3.41413L230.157 4.80986C231.309 5.99177 231.926 7.81079 231.926 9.512H233.926ZM231.595 3.41917C229.542 1.28269 226.888 0.987998 225.006 0.987998V2.988C226.724 2.988 228.677 3.26931 230.153 4.80482L231.595 3.41917ZM225.006 0.987998H215.286V2.988H225.006V0.987998ZM221.514 7.812H222.702V5.812H221.514V7.812ZM222.702 7.812C223.934 7.812 224.669 8.14171 224.983 8.45511L226.397 7.04089C225.558 6.20229 224.205 5.812 222.702 5.812V7.812ZM225.007 8.47905C225.312 8.76369 225.518 9.27352 225.518 9.764H227.518C227.518 8.81448 227.147 7.74031 226.372 7.01694L225.007 8.47905ZM225.518 9.764C225.518 10.2759 225.285 10.8069 225.019 11.0729L226.433 12.4871C227.103 11.8171 227.518 10.7641 227.518 9.764H225.518ZM225.036 11.0559C224.819 11.2627 224.467 11.4451 224.011 11.5733C223.564 11.6988 223.089 11.752 222.702 11.752V13.752C223.25 13.752 223.909 13.6792 224.552 13.4987C225.185 13.3209 225.876 13.0173 226.415 12.5041L225.036 11.0559ZM222.702 11.752H221.514V13.752H222.702V11.752ZM222.514 12.752V6.812H220.514V12.752H222.514ZM237.856 1.988V0.987998H236.856V1.988H237.856ZM237.856 26H236.856V27H237.856V26ZM244.084 26V27H245.084V26H244.084ZM244.084 1.988H245.084V0.987998H244.084V1.988ZM236.856 1.988V26H238.856V1.988H236.856ZM237.856 27H244.084V25H237.856V27ZM245.084 26V1.988H243.084V26H245.084ZM244.084 0.987998H237.856V2.988H244.084V0.987998ZM262.785 1.988H263.785V0.987998H262.785V1.988ZM249.141 1.988V0.987998H248.141V1.988H249.141ZM249.141 26H248.141V27H249.141V26ZM262.785 26V27H263.785V26H262.785ZM262.785 20.708H263.785V19.708H262.785V20.708ZM255.369 20.708H254.369V21.708H255.369V20.708ZM255.369 16.568V15.568H254.369V16.568H255.369ZM262.389 16.568V17.568H263.389V16.568H262.389ZM262.389 11.276H263.389V10.276H262.389V11.276ZM255.369 11.276H254.369V12.276H255.369V11.276ZM255.369 7.28V6.28H254.369V7.28H255.369ZM262.785 7.28V8.28H263.785V7.28H262.785ZM262.785 0.987998H249.141V2.988H262.785V0.987998ZM248.141 1.988V26H250.141V1.988H248.141ZM249.141 27H262.785V25H249.141V27ZM263.785 26V20.708H261.785V26H263.785ZM262.785 19.708H255.369V21.708H262.785V19.708ZM256.369 20.708V16.568H254.369V20.708H256.369ZM255.369 17.568H262.389V15.568H255.369V17.568ZM263.389 16.568V11.276H261.389V16.568H263.389ZM262.389 10.276H255.369V12.276H262.389V10.276ZM256.369 11.276V7.28H254.369V11.276H256.369ZM255.369 8.28H262.785V6.28H255.369V8.28ZM263.785 7.28V1.988H261.785V7.28H263.785ZM265.674 23.84L264.79 23.3727L264.374 24.1597L265.108 24.664L265.674 23.84ZM269.31 25.748L269.655 24.8093L269.652 24.8082L269.31 25.748ZM281.118 24.092L280.411 23.3849L281.118 24.092ZM281.838 13.76L281.103 14.4375L281.111 14.4466L281.838 13.76ZM277.482 11.384L277.778 10.4287L277.771 10.4267L277.482 11.384ZM275.574 10.808L275.863 9.85064L275.855 9.84826L275.574 10.808ZM273.486 9.728L272.697 10.3419L272.707 10.3552L272.718 10.3682L273.486 9.728ZM273.774 7.352L273.089 6.6238L273.078 6.63418L273.067 6.64489L273.774 7.352ZM279.93 8.252L279.311 9.03727L280.267 9.7908L280.821 8.70711L279.93 8.252ZM282.414 3.392L283.305 3.84711L283.755 2.96555L282.878 2.50617L282.414 3.392ZM268.842 3.716L269.549 4.42311V4.42311L268.842 3.716ZM268.014 13.76L268.758 13.091L268.751 13.0834L268.014 13.76ZM271.47 15.704L271.164 16.6561L271.173 16.6589L271.47 15.704ZM273.09 16.208L272.793 17.1629L272.801 17.1652L273.09 16.208ZM276.186 17.468L275.525 18.2178L275.53 18.2226L275.536 18.2273L276.186 17.468ZM276.258 20.42L275.551 19.7129L275.536 19.7283L275.521 19.7443L276.258 20.42ZM268.338 18.8L269.026 18.0735L268.069 17.169L267.454 18.3327L268.338 18.8ZM265.108 24.664C266.931 25.9177 268.529 26.528 268.969 26.6878L269.652 24.8082C269.299 24.68 267.873 24.1383 266.241 23.016L265.108 24.664ZM268.966 26.6867C270.87 27.3861 272.433 27.54 274.026 27.54V25.54C272.596 25.54 271.279 25.4059 269.655 24.8093L268.966 26.6867ZM274.026 27.54C276.679 27.54 279.493 27.1313 281.825 24.7991L280.411 23.3849C278.639 25.1567 276.486 25.54 274.026 25.54V27.54ZM281.825 24.7991C283.799 22.8253 284.386 20.4096 284.386 18.044H282.386C282.386 20.0704 281.893 21.9027 280.411 23.3849L281.825 24.7991ZM284.386 18.044C284.386 16.2197 284.017 14.6099 282.565 13.0734L281.111 14.4466C282.108 15.5021 282.386 16.5563 282.386 18.044H284.386ZM282.574 13.0825C281.114 11.4978 279.29 10.8966 277.778 10.4287L277.187 12.3393C278.699 12.8074 280.042 13.2862 281.103 14.4375L282.574 13.0825ZM277.771 10.4267L275.863 9.85067L275.285 11.7653L277.193 12.3413L277.771 10.4267ZM275.855 9.84826C274.513 9.45536 274.274 9.1113 274.255 9.08781L272.718 10.3682C273.059 10.7767 273.684 11.2966 275.293 11.7677L275.855 9.84826ZM274.276 9.11406C274.204 9.02242 274.162 8.94233 274.162 8.648H272.162C272.162 9.21767 272.264 9.78557 272.697 10.3419L274.276 9.11406ZM274.162 8.648C274.162 8.47674 274.22 8.3203 274.481 8.05911L273.067 6.64489C272.608 7.1037 272.162 7.73926 272.162 8.648H274.162ZM274.46 8.0802C274.806 7.75414 275.332 7.632 275.826 7.632V5.632C275.096 5.632 273.967 5.79786 273.089 6.6238L274.46 8.0802ZM275.826 7.632C276.465 7.632 277.641 7.72051 279.311 9.03727L280.55 7.46673C278.476 5.83148 276.844 5.632 275.826 5.632V7.632ZM280.821 8.70711L283.305 3.84711L281.524 2.93689L279.04 7.79689L280.821 8.70711ZM282.878 2.50617C280.49 1.25493 277.56 0.447998 274.998 0.447998V2.448C277.189 2.448 279.803 3.15307 281.95 4.27783L282.878 2.50617ZM274.998 0.447998C271.828 0.447998 269.555 1.58963 268.135 3.00889L269.549 4.42311C270.578 3.39437 272.336 2.448 274.998 2.448V0.447998ZM268.135 3.00889C266.927 4.21691 265.646 6.26327 265.646 9.512H267.646C267.646 6.85672 268.669 5.30309 269.549 4.42311L268.135 3.00889ZM265.646 9.512C265.646 10.7845 265.785 12.8117 267.278 14.4366L268.751 13.0834C267.796 12.0443 267.646 10.6875 267.646 9.512H265.646ZM267.271 14.429C268.441 15.7287 270.158 16.3326 271.164 16.656L271.776 14.752C270.767 14.4274 269.532 13.9513 268.758 13.091L267.271 14.429ZM271.173 16.6589L272.793 17.1629L273.387 15.2531L271.767 14.7491L271.173 16.6589ZM272.801 17.1652C273.598 17.4062 274.174 17.5732 274.638 17.7473C275.094 17.9182 275.351 18.0644 275.525 18.2178L276.848 16.7182C276.41 16.3316 275.893 16.0818 275.34 15.8747C274.797 15.6708 274.131 15.4778 273.38 15.2508L272.801 17.1652ZM275.536 18.2273C275.797 18.4509 275.87 18.7025 275.87 18.908H277.87C277.87 18.1775 277.584 17.3491 276.837 16.7087L275.536 18.2273ZM275.87 18.908C275.87 19.2464 275.73 19.5344 275.551 19.7129L276.965 21.1271C277.507 20.5856 277.87 19.7936 277.87 18.908H275.87ZM275.521 19.7443C275.357 19.9231 274.896 20.248 273.846 20.248V22.248C275.317 22.248 276.367 21.7809 276.996 21.0957L275.521 19.7443ZM273.846 20.248C272.035 20.248 270.253 19.2345 269.026 18.0735L267.651 19.5265C269.088 20.8855 271.338 22.248 273.846 22.248V20.248ZM267.454 18.3327L264.79 23.3727L266.558 24.3073L269.222 19.2673L267.454 18.3327Z" fill="white"/>
</svg>
