<svg width="232" height="28" viewBox="0 0 232 28" fill="none" xmlns="http://www.w3.org/2000/svg">
<path d="M1.44 23.84L0.555905 23.3727L0.139907 24.1597L0.873471 24.664L1.44 23.84ZM5.076 25.748L5.42082 24.8093L5.41774 24.8082L5.076 25.748ZM16.884 24.092L16.1769 23.3849L16.884 24.092ZM17.604 13.76L16.8684 14.4375L16.877 14.4466L17.604 13.76ZM13.248 11.384L13.5437 10.4287L13.537 10.4267L13.248 11.384ZM11.34 10.808L11.629 9.85064L11.6209 9.84826L11.34 10.808ZM9.252 9.728L8.46265 10.3419L8.47299 10.3552L8.48378 10.3682L9.252 9.728ZM9.54 7.352L8.85464 6.6238L8.84361 6.63418L8.83289 6.64489L9.54 7.352ZM15.696 8.252L15.0768 9.03727L16.0325 9.7908L16.5864 8.70711L15.696 8.252ZM18.18 3.392L19.0704 3.84711L19.521 2.96555L18.644 2.50617L18.18 3.392ZM4.608 3.716L5.31511 4.42311L5.31511 4.42311L4.608 3.716ZM3.78 13.76L4.52333 13.091L4.51633 13.0834L3.78 13.76ZM7.236 15.704L6.92998 16.6561L6.93893 16.6589L7.236 15.704ZM8.856 16.208L8.55892 17.1629L8.56661 17.1652L8.856 16.208ZM11.952 17.468L11.2904 18.2178L11.2958 18.2226L11.3012 18.2273L11.952 17.468ZM12.024 20.42L11.3169 19.7129L11.3015 19.7283L11.2868 19.7443L12.024 20.42ZM4.104 18.8L4.7912 18.0735L3.83499 17.169L3.21991 18.3327L4.104 18.8ZM0.873471 24.664C2.69703 25.9177 4.29487 26.528 4.73426 26.6878L5.41774 24.8082C5.06513 24.68 3.63897 24.1383 2.00653 23.016L0.873471 24.664ZM4.73118 26.6867C6.63531 27.3861 8.19878 27.54 9.792 27.54V25.54C8.36122 25.54 7.04469 25.4059 5.42082 24.8093L4.73118 26.6867ZM9.792 27.54C12.4446 27.54 15.2589 27.1313 17.5911 24.7991L16.1769 23.3849C14.4051 25.1567 12.2514 25.54 9.792 25.54V27.54ZM17.5911 24.7991C19.5649 22.8253 20.152 20.4096 20.152 18.044H18.152C18.152 20.0704 17.6591 21.9027 16.1769 23.3849L17.5911 24.7991ZM20.152 18.044C20.152 16.2197 19.7822 14.6099 18.331 13.0734L16.877 14.4466C17.8738 15.5021 18.152 16.5563 18.152 18.044H20.152ZM18.3395 13.0825C16.88 11.4978 15.0554 10.8966 13.5437 10.4287L12.9523 12.3393C14.4646 12.8074 15.808 13.2862 16.8685 14.4375L18.3395 13.0825ZM13.537 10.4267L11.629 9.85067L11.051 11.7653L12.959 12.3413L13.537 10.4267ZM11.6209 9.84826C10.2785 9.45536 10.0398 9.1113 10.0202 9.08781L8.48378 10.3682C8.82421 10.7767 9.44951 11.2966 11.0591 11.7677L11.6209 9.84826ZM10.0414 9.11406C9.97008 9.02242 9.928 8.94233 9.928 8.648H7.928C7.928 9.21767 8.02992 9.78557 8.46265 10.3419L10.0414 9.11406ZM9.928 8.648C9.928 8.47674 9.98591 8.3203 10.2471 8.05911L8.83289 6.64489C8.37409 7.1037 7.928 7.73926 7.928 8.648H9.928ZM10.2254 8.0802C10.5718 7.75414 11.098 7.632 11.592 7.632V5.632C10.862 5.632 9.73219 5.79786 8.85464 6.6238L10.2254 8.0802ZM11.592 7.632C12.2302 7.632 13.4068 7.72051 15.0768 9.03727L16.3152 7.46673C14.2412 5.83148 12.6098 5.632 11.592 5.632V7.632ZM16.5864 8.70711L19.0704 3.84711L17.2896 2.93689L14.8056 7.79689L16.5864 8.70711ZM18.644 2.50617C16.2553 1.25493 13.3252 0.447998 10.764 0.447998V2.448C12.9548 2.448 15.5687 3.15307 17.716 4.27783L18.644 2.50617ZM10.764 0.447998C7.59392 0.447998 5.32016 1.58963 3.90089 3.00889L5.31511 4.42311C6.34384 3.39437 8.10208 2.448 10.764 2.448V0.447998ZM3.90089 3.00889C2.69288 4.21691 1.412 6.26327 1.412 9.512H3.412C3.412 6.85672 4.43512 5.30309 5.31511 4.42311L3.90089 3.00889ZM1.412 9.512C1.412 10.7845 1.55052 12.8117 3.04367 14.4366L4.51633 13.0834C3.56148 12.0443 3.412 10.6875 3.412 9.512H1.412ZM3.03671 14.429C4.20649 15.7287 5.92376 16.3326 6.92999 16.656L7.54201 14.752C6.53224 14.4274 5.29751 13.9513 4.52329 13.091L3.03671 14.429ZM6.93893 16.6589L8.55893 17.1629L9.15307 15.2531L7.53307 14.7491L6.93893 16.6589ZM8.56661 17.1652C9.3638 17.4062 9.93945 17.5732 10.4039 17.7473C10.8594 17.9182 11.1165 18.0644 11.2904 18.2178L12.6136 16.7182C12.1755 16.3316 11.6586 16.0818 11.1061 15.8747C10.5625 15.6708 9.8962 15.4778 9.14539 15.2508L8.56661 17.1652ZM11.3012 18.2273C11.5622 18.4509 11.636 18.7025 11.636 18.908H13.636C13.636 18.1775 13.3498 17.3491 12.6028 16.7087L11.3012 18.2273ZM11.636 18.908C11.636 19.2464 11.4953 19.5344 11.3169 19.7129L12.7311 21.1271C13.2727 20.5856 13.636 19.7936 13.636 18.908H11.636ZM11.2868 19.7443C11.1229 19.9231 10.6617 20.248 9.612 20.248V22.248C11.0823 22.248 12.1331 21.7809 12.7612 21.0957L11.2868 19.7443ZM9.612 20.248C7.80074 20.248 6.01849 19.2345 4.7912 18.0735L3.4168 19.5265C4.85351 20.8855 7.10326 22.248 9.612 22.248V20.248ZM3.21991 18.3327L0.555905 23.3727L2.3241 24.3073L4.9881 19.2673L3.21991 18.3327ZM37.2704 7.28V8.28H38.2704V7.28H37.2704ZM37.2704 1.988H38.2704V0.987998H37.2704V1.988ZM20.8184 1.988V0.987998H19.8184V1.988H20.8184ZM20.8184 7.28H19.8184V8.28H20.8184V7.28ZM25.9304 7.28H26.9304V6.28H25.9304V7.28ZM25.9304 26H24.9304V27H25.9304V26ZM32.1584 26V27H33.1584V26H32.1584ZM32.1584 7.28V6.28H31.1584V7.28H32.1584ZM38.2704 7.28V1.988H36.2704V7.28H38.2704ZM37.2704 0.987998H20.8184V2.988H37.2704V0.987998ZM19.8184 1.988V7.28H21.8184V1.988H19.8184ZM20.8184 8.28H25.9304V6.28H20.8184V8.28ZM24.9304 7.28V26H26.9304V7.28H24.9304ZM25.9304 27H32.1584V25H25.9304V27ZM33.1584 26V7.28H31.1584V26H33.1584ZM32.1584 8.28H37.2704V6.28H32.1584V8.28ZM40.0317 1.988V0.987998H39.0317V1.988H40.0317ZM40.0317 26H39.0317V27H40.0317V26ZM46.2597 26V27H47.2597V26H46.2597ZM46.2597 16.784L47.0988 16.2399L45.2597 13.4038V16.784H46.2597ZM52.2357 26L51.3967 26.5441L51.6923 27H52.2357V26ZM59.9757 26V27H62.0007L60.7697 25.3921L59.9757 26ZM52.4517 16.172L52.2617 15.1902L50.6757 15.4972L51.6577 16.7799L52.4517 16.172ZM55.7637 14.516L56.4568 15.2368L56.4599 15.2339L55.7637 14.516ZM55.6197 4.112L54.8986 4.80484L54.9035 4.80986L55.6197 4.112ZM46.2597 6.812V5.812H45.2597V6.812H46.2597ZM50.4357 7.748L49.7286 8.45511L49.7408 8.46729L49.7534 8.47905L50.4357 7.748ZM50.4717 11.78L51.1614 12.5041L51.1702 12.4957L51.1788 12.4871L50.4717 11.78ZM46.2597 12.752H45.2597V13.752H46.2597V12.752ZM39.0317 1.988V26H41.0317V1.988H39.0317ZM40.0317 27H46.2597V25H40.0317V27ZM47.2597 26V16.784H45.2597V26H47.2597ZM45.4207 17.3281L51.3967 26.5441L53.0748 25.4559L47.0988 16.2399L45.4207 17.3281ZM52.2357 27H59.9757V25H52.2357V27ZM60.7697 25.3921L53.2457 15.5641L51.6577 16.7799L59.1817 26.6079L60.7697 25.3921ZM52.6417 17.1538C53.903 16.9097 55.3526 16.2986 56.4568 15.2368L55.0706 13.7952C54.3028 14.5334 53.2324 15.0023 52.2617 15.1902L52.6417 17.1538ZM56.4599 15.2339C57.8739 13.8627 58.6717 11.7868 58.6717 9.512H56.6717C56.6717 11.3412 56.0295 12.8653 55.0676 13.7981L56.4599 15.2339ZM58.6717 9.512C58.6717 7.39721 57.9203 5.04023 56.3359 3.41413L54.9035 4.80986C56.0551 5.99177 56.6717 7.81079 56.6717 9.512H58.6717ZM56.3408 3.41917C54.2881 1.28269 51.6338 0.987998 49.7517 0.987998V2.988C51.4696 2.988 53.4233 3.26931 54.8986 4.80482L56.3408 3.41917ZM49.7517 0.987998H40.0317V2.988H49.7517V0.987998ZM46.2597 7.812H47.4477V5.812H46.2597V7.812ZM47.4477 7.812C48.6799 7.812 49.4152 8.14171 49.7286 8.45511L51.1428 7.04089C50.3042 6.20229 48.9515 5.812 47.4477 5.812V7.812ZM49.7534 8.47905C50.0584 8.76369 50.2637 9.27352 50.2637 9.764H52.2637C52.2637 8.81448 51.8931 7.74031 51.118 7.01694L49.7534 8.47905ZM50.2637 9.764C50.2637 10.2759 50.0306 10.8069 49.7646 11.0729L51.1788 12.4871C51.8488 11.8171 52.2637 10.7641 52.2637 9.764H50.2637ZM49.7821 11.0559C49.5649 11.2627 49.2128 11.4451 48.7567 11.5733C48.31 11.6988 47.8349 11.752 47.4477 11.752V13.752C47.9965 13.752 48.6555 13.6792 49.2977 13.4987C49.9306 13.3209 50.6225 13.0173 51.1614 12.5041L49.7821 11.0559ZM47.4477 11.752H46.2597V13.752H47.4477V11.752ZM47.2597 12.752V6.812H45.2597V12.752H47.2597ZM76.246 1.988H77.246V0.987998H76.246V1.988ZM62.602 1.988V0.987998H61.602V1.988H62.602ZM62.602 26H61.602V27H62.602V26ZM76.246 26V27H77.246V26H76.246ZM76.246 20.708H77.246V19.708H76.246V20.708ZM68.83 20.708H67.83V21.708H68.83V20.708ZM68.83 16.568V15.568H67.83V16.568H68.83ZM75.85 16.568V17.568H76.85V16.568H75.85ZM75.85 11.276H76.85V10.276H75.85V11.276ZM68.83 11.276H67.83V12.276H68.83V11.276ZM68.83 7.28V6.28H67.83V7.28H68.83ZM76.246 7.28V8.28H77.246V7.28H76.246ZM76.246 0.987998H62.602V2.988H76.246V0.987998ZM61.602 1.988V26H63.602V1.988H61.602ZM62.602 27H76.246V25H62.602V27ZM77.246 26V20.708H75.246V26H77.246ZM76.246 19.708H68.83V21.708H76.246V19.708ZM69.83 20.708V16.568H67.83V20.708H69.83ZM68.83 17.568H75.85V15.568H68.83V17.568ZM76.85 16.568V11.276H74.85V16.568H76.85ZM75.85 10.276H68.83V12.276H75.85V10.276ZM69.83 11.276V7.28H67.83V11.276H69.83ZM68.83 8.28H76.246V6.28H68.83V8.28ZM77.246 7.28V1.988H75.246V7.28H77.246ZM93.8593 1.988H94.8593V0.987998H93.8593V1.988ZM80.2153 1.988V0.987998H79.2153V1.988H80.2153ZM80.2153 26H79.2153V27H80.2153V26ZM93.8593 26V27H94.8593V26H93.8593ZM93.8593 20.708H94.8593V19.708H93.8593V20.708ZM86.4433 20.708H85.4433V21.708H86.4433V20.708ZM86.4433 16.568V15.568H85.4433V16.568H86.4433ZM93.4633 16.568V17.568H94.4633V16.568H93.4633ZM93.4633 11.276H94.4633V10.276H93.4633V11.276ZM86.4433 11.276H85.4433V12.276H86.4433V11.276ZM86.4433 7.28V6.28H85.4433V7.28H86.4433ZM93.8593 7.28V8.28H94.8593V7.28H93.8593ZM93.8593 0.987998H80.2153V2.988H93.8593V0.987998ZM79.2153 1.988V26H81.2153V1.988H79.2153ZM80.2153 27H93.8593V25H80.2153V27ZM94.8593 26V20.708H92.8593V26H94.8593ZM93.8593 19.708H86.4433V21.708H93.8593V19.708ZM87.4433 20.708V16.568H85.4433V20.708H87.4433ZM86.4433 17.568H93.4633V15.568H86.4433V17.568ZM94.4633 16.568V11.276H92.4633V16.568H94.4633ZM93.4633 10.276H86.4433V12.276H93.4633V10.276ZM87.4433 11.276V7.28H85.4433V11.276H87.4433ZM86.4433 8.28H93.8593V6.28H86.4433V8.28ZM94.8593 7.28V1.988H92.8593V7.28H94.8593ZM112.927 7.28V8.28H113.927V7.28H112.927ZM112.927 1.988H113.927V0.987998H112.927V1.988ZM96.4747 1.988V0.987998H95.4747V1.988H96.4747ZM96.4747 7.28H95.4747V8.28H96.4747V7.28ZM101.587 7.28H102.587V6.28H101.587V7.28ZM101.587 26H100.587V27H101.587V26ZM107.815 26V27H108.815V26H107.815ZM107.815 7.28V6.28H106.815V7.28H107.815ZM113.927 7.28V1.988H111.927V7.28H113.927ZM112.927 0.987998H96.4747V2.988H112.927V0.987998ZM95.4747 1.988V7.28H97.4747V1.988H95.4747ZM96.4747 8.28H101.587V6.28H96.4747V8.28ZM100.587 7.28V26H102.587V7.28H100.587ZM101.587 27H107.815V25H101.587V27ZM108.815 26V7.28H106.815V26H108.815ZM107.815 8.28H112.927V6.28H107.815V8.28ZM123.01 23.84L122.126 23.3727L121.71 24.1597L122.444 24.664L123.01 23.84ZM126.646 25.748L126.991 24.8093L126.988 24.8082L126.646 25.748ZM138.454 24.092L137.747 23.3849L138.454 24.092ZM139.174 13.76L138.439 14.4375L138.447 14.4466L139.174 13.76ZM134.818 11.384L135.114 10.4287L135.107 10.4267L134.818 11.384ZM132.91 10.808L133.199 9.85064L133.191 9.84826L132.91 10.808ZM130.822 9.728L130.033 10.3419L130.043 10.3552L130.054 10.3682L130.822 9.728ZM131.11 7.352L130.425 6.6238L130.414 6.63418L130.403 6.64489L131.11 7.352ZM137.266 8.252L136.647 9.03727L137.603 9.7908L138.157 8.70711L137.266 8.252ZM139.75 3.392L140.641 3.84711L141.091 2.96555L140.214 2.50617L139.75 3.392ZM126.178 3.716L126.885 4.42311V4.42311L126.178 3.716ZM125.35 13.76L126.094 13.091L126.087 13.0834L125.35 13.76ZM128.806 15.704L128.5 16.6561L128.509 16.6589L128.806 15.704ZM130.426 16.208L130.129 17.1629L130.137 17.1652L130.426 16.208ZM133.522 17.468L132.861 18.2178L132.866 18.2226L132.872 18.2273L133.522 17.468ZM133.594 20.42L132.887 19.7129L132.872 19.7283L132.857 19.7443L133.594 20.42ZM125.674 18.8L126.362 18.0735L125.405 17.169L124.79 18.3327L125.674 18.8ZM122.444 24.664C124.267 25.9177 125.865 26.528 126.305 26.6878L126.988 24.8082C126.635 24.68 125.209 24.1383 123.577 23.016L122.444 24.664ZM126.301 26.6867C128.206 27.3861 129.769 27.54 131.362 27.54V25.54C129.932 25.54 128.615 25.4059 126.991 24.8093L126.301 26.6867ZM131.362 27.54C134.015 27.54 136.829 27.1313 139.161 24.7991L137.747 23.3849C135.975 25.1567 133.822 25.54 131.362 25.54V27.54ZM139.161 24.7991C141.135 22.8253 141.722 20.4096 141.722 18.044H139.722C139.722 20.0704 139.229 21.9027 137.747 23.3849L139.161 24.7991ZM141.722 18.044C141.722 16.2197 141.352 14.6099 139.901 13.0734L138.447 14.4466C139.444 15.5021 139.722 16.5563 139.722 18.044H141.722ZM139.91 13.0825C138.45 11.4978 136.626 10.8966 135.114 10.4287L134.523 12.3393C136.035 12.8074 137.378 13.2862 138.439 14.4375L139.91 13.0825ZM135.107 10.4267L133.199 9.85067L132.621 11.7653L134.529 12.3413L135.107 10.4267ZM133.191 9.84826C131.849 9.45536 131.61 9.1113 131.591 9.08781L130.054 10.3682C130.395 10.7767 131.02 11.2966 132.629 11.7677L133.191 9.84826ZM131.612 9.11406C131.54 9.02242 131.498 8.94233 131.498 8.648H129.498C129.498 9.21767 129.6 9.78557 130.033 10.3419L131.612 9.11406ZM131.498 8.648C131.498 8.47674 131.556 8.3203 131.817 8.05911L130.403 6.64489C129.944 7.1037 129.498 7.73926 129.498 8.648H131.498ZM131.796 8.0802C132.142 7.75414 132.668 7.632 133.162 7.632V5.632C132.432 5.632 131.303 5.79786 130.425 6.6238L131.796 8.0802ZM133.162 7.632C133.801 7.632 134.977 7.72051 136.647 9.03727L137.885 7.46673C135.811 5.83148 134.18 5.632 133.162 5.632V7.632ZM138.157 8.70711L140.641 3.84711L138.86 2.93689L136.376 7.79689L138.157 8.70711ZM140.214 2.50617C137.826 1.25493 134.895 0.447998 132.334 0.447998V2.448C134.525 2.448 137.139 3.15307 139.286 4.27783L140.214 2.50617ZM132.334 0.447998C129.164 0.447998 126.89 1.58963 125.471 3.00889L126.885 4.42311C127.914 3.39437 129.672 2.448 132.334 2.448V0.447998ZM125.471 3.00889C124.263 4.21691 122.982 6.26327 122.982 9.512H124.982C124.982 6.85672 126.005 5.30309 126.885 4.42311L125.471 3.00889ZM122.982 9.512C122.982 10.7845 123.121 12.8117 124.614 14.4366L126.087 13.0834C125.132 12.0443 124.982 10.6875 124.982 9.512H122.982ZM124.607 14.429C125.777 15.7287 127.494 16.3326 128.5 16.656L129.112 14.752C128.103 14.4274 126.868 13.9513 126.094 13.091L124.607 14.429ZM128.509 16.6589L130.129 17.1629L130.723 15.2531L129.103 14.7491L128.509 16.6589ZM130.137 17.1652C130.934 17.4062 131.51 17.5732 131.974 17.7473C132.43 17.9182 132.687 18.0644 132.861 18.2178L134.184 16.7182C133.746 16.3316 133.229 16.0818 132.676 15.8747C132.133 15.6708 131.467 15.4778 130.716 15.2508L130.137 17.1652ZM132.872 18.2273C133.132 18.4509 133.206 18.7025 133.206 18.908H135.206C135.206 18.1775 134.92 17.3491 134.173 16.7087L132.872 18.2273ZM133.206 18.908C133.206 19.2464 133.066 19.5344 132.887 19.7129L134.301 21.1271C134.843 20.5856 135.206 19.7936 135.206 18.908H133.206ZM132.857 19.7443C132.693 19.9231 132.232 20.248 131.182 20.248V22.248C132.653 22.248 133.703 21.7809 134.331 21.0957L132.857 19.7443ZM131.182 20.248C129.371 20.248 127.589 19.2345 126.362 18.0735L124.987 19.5265C126.424 20.8855 128.674 22.248 131.182 22.248V20.248ZM124.79 18.3327L122.126 23.3727L123.894 24.3073L126.558 19.2673L124.79 18.3327ZM158.301 1.988H159.301V0.987998H158.301V1.988ZM144.657 1.988V0.987998H143.657V1.988H144.657ZM144.657 26H143.657V27H144.657V26ZM158.301 26V27H159.301V26H158.301ZM158.301 20.708H159.301V19.708H158.301V20.708ZM150.885 20.708H149.885V21.708H150.885V20.708ZM150.885 16.568V15.568H149.885V16.568H150.885ZM157.905 16.568V17.568H158.905V16.568H157.905ZM157.905 11.276H158.905V10.276H157.905V11.276ZM150.885 11.276H149.885V12.276H150.885V11.276ZM150.885 7.28V6.28H149.885V7.28H150.885ZM158.301 7.28V8.28H159.301V7.28H158.301ZM158.301 0.987998H144.657V2.988H158.301V0.987998ZM143.657 1.988V26H145.657V1.988H143.657ZM144.657 27H158.301V25H144.657V27ZM159.301 26V20.708H157.301V26H159.301ZM158.301 19.708H150.885V21.708H158.301V19.708ZM151.885 20.708V16.568H149.885V20.708H151.885ZM150.885 17.568H157.905V15.568H150.885V17.568ZM158.905 16.568V11.276H156.905V16.568H158.905ZM157.905 10.276H150.885V12.276H157.905V10.276ZM151.885 11.276V7.28H149.885V11.276H151.885ZM150.885 8.28H158.301V6.28H150.885V8.28ZM159.301 7.28V1.988H157.301V7.28H159.301ZM162.27 1.988V0.987998H161.27V1.988H162.27ZM162.27 26H161.27V27H162.27V26ZM168.498 26V27H169.498V26H168.498ZM168.498 16.784L169.337 16.2399L167.498 13.4038V16.784H168.498ZM174.474 26L173.635 26.5441L173.931 27H174.474V26ZM182.214 26V27H184.239L183.008 25.3921L182.214 26ZM174.69 16.172L174.5 15.1902L172.914 15.4972L173.896 16.7799L174.69 16.172ZM178.002 14.516L178.695 15.2368L178.698 15.2339L178.002 14.516ZM177.858 4.112L177.137 4.80484L177.142 4.80986L177.858 4.112ZM168.498 6.812V5.812H167.498V6.812H168.498ZM172.674 7.748L171.967 8.45511L171.979 8.46729L171.992 8.47905L172.674 7.748ZM172.71 11.78L173.4 12.5041L173.408 12.4957L173.417 12.4871L172.71 11.78ZM168.498 12.752H167.498V13.752H168.498V12.752ZM161.27 1.988V26H163.27V1.988H161.27ZM162.27 27H168.498V25H162.27V27ZM169.498 26V16.784H167.498V26H169.498ZM167.659 17.3281L173.635 26.5441L175.313 25.4559L169.337 16.2399L167.659 17.3281ZM174.474 27H182.214V25H174.474V27ZM183.008 25.3921L175.484 15.5641L173.896 16.7799L181.42 26.6079L183.008 25.3921ZM174.88 17.1538C176.141 16.9097 177.591 16.2986 178.695 15.2368L177.309 13.7952C176.541 14.5334 175.471 15.0023 174.5 15.1902L174.88 17.1538ZM178.698 15.2339C180.112 13.8627 180.91 11.7868 180.91 9.512H178.91C178.91 11.3412 178.268 12.8653 177.306 13.7981L178.698 15.2339ZM180.91 9.512C180.91 7.39721 180.159 5.04023 178.574 3.41413L177.142 4.80986C178.293 5.99177 178.91 7.81079 178.91 9.512H180.91ZM178.579 3.41917C176.526 1.28269 173.872 0.987998 171.99 0.987998V2.988C173.708 2.988 175.662 3.26931 177.137 4.80482L178.579 3.41917ZM171.99 0.987998H162.27V2.988H171.99V0.987998ZM168.498 7.812H169.686V5.812H168.498V7.812ZM169.686 7.812C170.918 7.812 171.653 8.14171 171.967 8.45511L173.381 7.04089C172.543 6.20229 171.19 5.812 169.686 5.812V7.812ZM171.992 8.47905C172.297 8.76369 172.502 9.27352 172.502 9.764H174.502C174.502 8.81448 174.131 7.74031 173.356 7.01694L171.992 8.47905ZM172.502 9.764C172.502 10.2759 172.269 10.8069 172.003 11.0729L173.417 12.4871C174.087 11.8171 174.502 10.7641 174.502 9.764H172.502ZM172.02 11.0559C171.803 11.2627 171.451 11.4451 170.995 11.5733C170.548 11.6988 170.073 11.752 169.686 11.752V13.752C170.235 13.752 170.894 13.6792 171.536 13.4987C172.169 13.3209 172.861 13.0173 173.4 12.5041L172.02 11.0559ZM169.686 11.752H168.498V13.752H169.686V11.752ZM169.498 12.752V6.812H167.498V12.752H169.498ZM184.84 1.988V0.987998H183.84V1.988H184.84ZM184.84 26H183.84V27H184.84V26ZM191.068 26V27H192.068V26H191.068ZM191.068 1.988H192.068V0.987998H191.068V1.988ZM183.84 1.988V26H185.84V1.988H183.84ZM184.84 27H191.068V25H184.84V27ZM192.068 26V1.988H190.068V26H192.068ZM191.068 0.987998H184.84V2.988H191.068V0.987998ZM209.769 1.988H210.769V0.987998H209.769V1.988ZM196.125 1.988V0.987998H195.125V1.988H196.125ZM196.125 26H195.125V27H196.125V26ZM209.769 26V27H210.769V26H209.769ZM209.769 20.708H210.769V19.708H209.769V20.708ZM202.353 20.708H201.353V21.708H202.353V20.708ZM202.353 16.568V15.568H201.353V16.568H202.353ZM209.373 16.568V17.568H210.373V16.568H209.373ZM209.373 11.276H210.373V10.276H209.373V11.276ZM202.353 11.276H201.353V12.276H202.353V11.276ZM202.353 7.28V6.28H201.353V7.28H202.353ZM209.769 7.28V8.28H210.769V7.28H209.769ZM209.769 0.987998H196.125V2.988H209.769V0.987998ZM195.125 1.988V26H197.125V1.988H195.125ZM196.125 27H209.769V25H196.125V27ZM210.769 26V20.708H208.769V26H210.769ZM209.769 19.708H202.353V21.708H209.769V19.708ZM203.353 20.708V16.568H201.353V20.708H203.353ZM202.353 17.568H209.373V15.568H202.353V17.568ZM210.373 16.568V11.276H208.373V16.568H210.373ZM209.373 10.276H202.353V12.276H209.373V10.276ZM203.353 11.276V7.28H201.353V11.276H203.353ZM202.353 8.28H209.769V6.28H202.353V8.28ZM210.769 7.28V1.988H208.769V7.28H210.769ZM212.659 23.84L211.775 23.3727L211.359 24.1597L212.092 24.664L212.659 23.84ZM216.295 25.748L216.64 24.8093L216.636 24.8082L216.295 25.748ZM228.103 24.092L227.396 23.3849L228.103 24.092ZM228.823 13.76L228.087 14.4375L228.096 14.4466L228.823 13.76ZM224.467 11.384L224.762 10.4287L224.756 10.4267L224.467 11.384ZM222.559 10.808L222.848 9.85064L222.84 9.84826L222.559 10.808ZM220.471 9.728L219.681 10.3419L219.692 10.3552L219.703 10.3682L220.471 9.728ZM220.759 7.352L220.073 6.6238L220.062 6.63418L220.052 6.64489L220.759 7.352ZM226.915 8.252L226.296 9.03727L227.251 9.7908L227.805 8.70711L226.915 8.252ZM229.399 3.392L230.289 3.84711L230.74 2.96555L229.863 2.50617L229.399 3.392ZM215.827 3.716L216.534 4.42311V4.42311L215.827 3.716ZM214.999 13.76L215.742 13.091L215.735 13.0834L214.999 13.76ZM218.455 15.704L218.149 16.6561L218.158 16.6589L218.455 15.704ZM220.075 16.208L219.778 17.1629L219.785 17.1652L220.075 16.208ZM223.171 17.468L222.509 18.2178L222.515 18.2226L222.52 18.2273L223.171 17.468ZM223.243 20.42L222.536 19.7129L222.52 19.7283L222.506 19.7443L223.243 20.42ZM215.323 18.8L216.01 18.0735L215.054 17.169L214.439 18.3327L215.323 18.8ZM212.092 24.664C213.916 25.9177 215.514 26.528 215.953 26.6878L216.636 24.8082C216.284 24.68 214.858 24.1383 213.225 23.016L212.092 24.664ZM215.95 26.6867C217.854 27.3861 219.418 27.54 221.011 27.54V25.54C219.58 25.54 218.263 25.4059 216.64 24.8093L215.95 26.6867ZM221.011 27.54C223.663 27.54 226.478 27.1313 228.81 24.7991L227.396 23.3849C225.624 25.1567 223.47 25.54 221.011 25.54V27.54ZM228.81 24.7991C230.784 22.8253 231.371 20.4096 231.371 18.044H229.371C229.371 20.0704 228.878 21.9027 227.396 23.3849L228.81 24.7991ZM231.371 18.044C231.371 16.2197 231.001 14.6099 229.55 13.0734L228.096 14.4466C229.093 15.5021 229.371 16.5563 229.371 18.044H231.371ZM229.558 13.0825C228.099 11.4978 226.274 10.8966 224.762 10.4287L224.171 12.3393C225.683 12.8074 227.027 13.2862 228.087 14.4375L229.558 13.0825ZM224.756 10.4267L222.848 9.85067L222.27 11.7653L224.178 12.3413L224.756 10.4267ZM222.84 9.84826C221.497 9.45536 221.259 9.1113 221.239 9.08781L219.703 10.3682C220.043 10.7767 220.668 11.2966 222.278 11.7677L222.84 9.84826ZM221.26 9.11406C221.189 9.02242 221.147 8.94233 221.147 8.648H219.147C219.147 9.21767 219.249 9.78557 219.681 10.3419L221.26 9.11406ZM221.147 8.648C221.147 8.47674 221.205 8.3203 221.466 8.05911L220.052 6.64489C219.593 7.1037 219.147 7.73926 219.147 8.648H221.147ZM221.444 8.0802C221.791 7.75414 222.317 7.632 222.811 7.632V5.632C222.081 5.632 220.951 5.79786 220.073 6.6238L221.444 8.0802ZM222.811 7.632C223.449 7.632 224.626 7.72051 226.296 9.03727L227.534 7.46673C225.46 5.83148 223.829 5.632 222.811 5.632V7.632ZM227.805 8.70711L230.289 3.84711L228.508 2.93689L226.024 7.79689L227.805 8.70711ZM229.863 2.50617C227.474 1.25493 224.544 0.447998 221.983 0.447998V2.448C224.174 2.448 226.787 3.15307 228.935 4.27783L229.863 2.50617ZM221.983 0.447998C218.813 0.447998 216.539 1.58963 215.12 3.00889L216.534 4.42311C217.563 3.39437 219.321 2.448 221.983 2.448V0.447998ZM215.12 3.00889C213.912 4.21691 212.631 6.26327 212.631 9.512H214.631C214.631 6.85672 215.654 5.30309 216.534 4.42311L215.12 3.00889ZM212.631 9.512C212.631 10.7845 212.769 12.8117 214.262 14.4366L215.735 13.0834C214.78 12.0443 214.631 10.6875 214.631 9.512H212.631ZM214.255 14.429C215.425 15.7287 217.143 16.3326 218.149 16.656L218.761 14.752C217.751 14.4274 216.516 13.9513 215.742 13.091L214.255 14.429ZM218.158 16.6589L219.778 17.1629L220.372 15.2531L218.752 14.7491L218.158 16.6589ZM219.785 17.1652C220.583 17.4062 221.158 17.5732 221.623 17.7473C222.078 17.9182 222.335 18.0644 222.509 18.2178L223.832 16.7182C223.394 16.3316 222.877 16.0818 222.325 15.8747C221.781 15.6708 221.115 15.4778 220.364 15.2508L219.785 17.1652ZM222.52 18.2273C222.781 18.4509 222.855 18.7025 222.855 18.908H224.855C224.855 18.1775 224.569 17.3491 223.822 16.7087L222.52 18.2273ZM222.855 18.908C222.855 19.2464 222.714 19.5344 222.536 19.7129L223.95 21.1271C224.491 20.5856 224.855 19.7936 224.855 18.908H222.855ZM222.506 19.7443C222.342 19.9231 221.88 20.248 220.831 20.248V22.248C222.301 22.248 223.352 21.7809 223.98 21.0957L222.506 19.7443ZM220.831 20.248C219.019 20.248 217.237 19.2345 216.01 18.0735L214.636 19.5265C216.072 20.8855 218.322 22.248 220.831 22.248V20.248ZM214.439 18.3327L211.775 23.3727L213.543 24.3073L216.207 19.2673L214.439 18.3327Z" fill="white"/>
</svg>
