<svg width="220" height="28" viewBox="0 0 220 28" fill="none" xmlns="http://www.w3.org/2000/svg">
<path d="M1.52 1.988V0.987998H0.52V1.988H1.52ZM1.52 26H0.52V27H1.52V26ZM7.748 26V27H8.748V26H7.748ZM7.748 16.784L8.58704 16.2399L6.748 13.4038V16.784H7.748ZM13.724 26L12.885 26.5441L13.1806 27H13.724V26ZM21.464 26V27H23.489L22.258 25.3921L21.464 26ZM13.94 16.172L13.75 15.1902L12.164 15.4972L13.146 16.7799L13.94 16.172ZM17.252 14.516L17.9451 15.2368L17.9481 15.2339L17.252 14.516ZM17.108 4.112L16.3869 4.80484L16.3918 4.80986L17.108 4.112ZM7.748 6.812V5.812H6.748V6.812H7.748ZM11.924 7.748L11.2169 8.45511L11.2291 8.46729L11.2417 8.47905L11.924 7.748ZM11.96 11.78L12.6497 12.5041L12.6585 12.4957L12.6671 12.4871L11.96 11.78ZM7.748 12.752H6.748V13.752H7.748V12.752ZM0.52 1.988V26H2.52V1.988H0.52ZM1.52 27H7.748V25H1.52V27ZM8.748 26V16.784H6.748V26H8.748ZM6.90896 17.3281L12.885 26.5441L14.563 25.4559L8.58704 16.2399L6.90896 17.3281ZM13.724 27H21.464V25H13.724V27ZM22.258 25.3921L14.734 15.5641L13.146 16.7799L20.67 26.6079L22.258 25.3921ZM14.13 17.1538C15.3913 16.9097 16.8409 16.2986 17.9451 15.2368L16.5589 13.7952C15.7911 14.5334 14.7207 15.0023 13.75 15.1902L14.13 17.1538ZM17.9481 15.2339C19.3622 13.8627 20.16 11.7868 20.16 9.512H18.16C18.16 11.3412 17.5178 12.8653 16.5559 13.7981L17.9481 15.2339ZM20.16 9.512C20.16 7.39721 19.4086 5.04023 17.8242 3.41413L16.3918 4.80986C17.5434 5.99177 18.16 7.81079 18.16 9.512H20.16ZM17.8291 3.41917C15.7764 1.28269 13.1221 0.987998 11.24 0.987998V2.988C12.9579 2.988 14.9116 3.26931 16.3869 4.80482L17.8291 3.41917ZM11.24 0.987998H1.52V2.988H11.24V0.987998ZM7.748 7.812H8.936V5.812H7.748V7.812ZM8.936 7.812C10.1682 7.812 10.9035 8.14171 11.2169 8.45511L12.6311 7.04089C11.7925 6.20229 10.4398 5.812 8.936 5.812V7.812ZM11.2417 8.47905C11.5467 8.76369 11.752 9.27352 11.752 9.764H13.752C13.752 8.81448 13.3814 7.74031 12.6063 7.01694L11.2417 8.47905ZM11.752 9.764C11.752 10.2759 11.5189 10.8069 11.2529 11.0729L12.6671 12.4871C13.3371 11.8171 13.752 10.7641 13.752 9.764H11.752ZM11.2703 11.0559C11.0532 11.2627 10.7011 11.4451 10.245 11.5733C9.79824 11.6988 9.32322 11.752 8.936 11.752V13.752C9.48479 13.752 10.1438 13.6792 10.786 13.4987C11.4189 13.3209 12.1108 13.0173 12.6497 12.5041L11.2703 11.0559ZM8.936 11.752H7.748V13.752H8.936V11.752ZM8.748 12.752V6.812H6.748V12.752H8.748ZM45.7263 5.012L45.0353 5.73489L45.04 5.7393L45.7263 5.012ZM26.7903 5.012L27.4767 5.73931L27.4813 5.73487L26.7903 5.012ZM26.7903 22.976L26.0986 23.6982L26.0993 23.6989L26.7903 22.976ZM45.7263 22.976L46.4173 23.6989L46.418 23.6982L45.7263 22.976ZM41.0823 9.404L41.7778 8.68535L41.7695 8.67753L41.0823 9.404ZM41.0823 18.62L41.7894 19.3271L41.0823 18.62ZM31.3983 18.584L32.0941 17.8658L32.0908 17.8626L31.3983 18.584ZM31.3983 9.404L32.0955 10.1211L32.1054 10.1111L31.3983 9.404ZM50.5063 14.012C50.5063 10.5673 49.1927 6.9081 46.4126 4.2847L45.04 5.7393C47.372 7.93989 48.5063 11.0487 48.5063 14.012H50.5063ZM46.4173 4.28913C43.7565 1.74571 40.0402 0.447998 36.2583 0.447998V2.448C39.6044 2.448 42.8001 3.59829 45.0353 5.73487L46.4173 4.28913ZM36.2583 0.447998C32.4764 0.447998 28.7601 1.74571 26.0993 4.28913L27.4813 5.73487C29.7165 3.59829 32.9122 2.448 36.2583 2.448V0.447998ZM26.104 4.2847C23.324 6.9081 22.0103 10.5673 22.0103 14.012H24.0103C24.0103 11.0487 25.1447 7.93989 27.4766 5.7393L26.104 4.2847ZM22.0103 14.012C22.0103 17.4269 23.3278 21.0444 26.0986 23.6982L27.482 22.2538C25.1408 20.0116 24.0103 16.9331 24.0103 14.012H22.0103ZM26.0993 23.6989C28.7601 26.2423 32.4764 27.54 36.2583 27.54V25.54C32.9122 25.54 29.7165 24.3897 27.4813 22.2531L26.0993 23.6989ZM36.2583 27.54C40.0402 27.54 43.7565 26.2423 46.4173 23.6989L45.0353 22.2531C42.8001 24.3897 39.6044 25.54 36.2583 25.54V27.54ZM46.418 23.6982C49.1888 21.0444 50.5063 17.4269 50.5063 14.012H48.5063C48.5063 16.9331 47.3758 20.0116 45.0346 22.2538L46.418 23.6982ZM36.2583 8.496C37.6767 8.496 39.2615 9.05812 40.3951 10.1305L41.7695 8.67753C40.2391 7.22987 38.1519 6.496 36.2583 6.496V8.496ZM40.3869 10.1226C41.3249 11.0303 42.0263 12.4333 42.0263 14.012H44.0263C44.0263 11.8467 43.0717 9.93765 41.7777 8.6854L40.3869 10.1226ZM42.0263 14.012C42.0263 15.5493 41.3288 16.9593 40.3752 17.9129L41.7894 19.3271C43.0678 18.0487 44.0263 16.1467 44.0263 14.012H42.0263ZM40.3752 17.9129C39.4503 18.8378 38.1222 19.492 36.2583 19.492V21.492C38.6424 21.492 40.4823 20.6342 41.7894 19.3271L40.3752 17.9129ZM36.2583 19.492C34.4443 19.492 33.0701 18.8112 32.0941 17.8658L30.7025 19.3022C32.0306 20.5888 33.8963 21.492 36.2583 21.492V19.492ZM32.0908 17.8626C31.3279 17.1302 30.4903 15.8991 30.4903 14.12H28.4903C28.4903 16.5889 29.6687 18.3098 30.7058 19.3054L32.0908 17.8626ZM30.4903 14.12C30.4903 12.6549 31.022 11.1646 32.0954 10.121L30.7012 8.687C29.1827 10.1634 28.4903 12.2011 28.4903 14.12H30.4903ZM32.1054 10.1111C33.1818 9.03474 34.7464 8.496 36.2583 8.496V6.496C34.3142 6.496 32.2068 7.18126 30.6912 8.69689L32.1054 10.1111ZM68.9058 26L67.9668 26.3438L68.207 27H68.9058V26ZM75.5658 26V27H77.0106L76.5017 25.6478L75.5658 26ZM66.5298 1.988L67.4657 1.6358L67.222 0.987998H66.5298V1.988ZM59.7258 1.988V0.987998H59.0385L58.7922 1.62968L59.7258 1.988ZM50.5098 26L49.5762 25.6417L49.0549 27H50.5098V26ZM57.0978 26V27H57.7737L58.0257 26.3728L57.0978 26ZM58.7178 21.968V20.968H58.0419L57.7899 21.5952L58.7178 21.968ZM67.4298 21.968L68.3689 21.6242L68.1286 20.968H67.4298V21.968ZM60.4458 17.216L59.4985 16.8958L59.0523 18.216H60.4458V17.216ZM63.0738 9.44L64.0185 9.11199L63.061 6.35451L62.1265 9.11983L63.0738 9.44ZM65.7738 17.216V18.216H67.1796L66.7185 16.888L65.7738 17.216ZM68.9058 27H75.5658V25H68.9058V27ZM76.5017 25.6478L67.4657 1.6358L65.5939 2.3402L74.6299 26.3522L76.5017 25.6478ZM66.5298 0.987998H59.7258V2.988H66.5298V0.987998ZM58.7922 1.62968L49.5762 25.6417L51.4434 26.3583L60.6594 2.34632L58.7922 1.62968ZM50.5098 27H57.0978V25H50.5098V27ZM58.0257 26.3728L59.6457 22.3408L57.7899 21.5952L56.1699 25.6272L58.0257 26.3728ZM58.7178 22.968H67.4298V20.968H58.7178V22.968ZM66.4908 22.3118L67.9668 26.3438L69.8449 25.6562L68.3689 21.6242L66.4908 22.3118ZM61.3932 17.5362L64.0212 9.76017L62.1265 9.11983L59.4985 16.8958L61.3932 17.5362ZM62.1291 9.76801L64.8291 17.544L66.7185 16.888L64.0185 9.11199L62.1291 9.76801ZM65.7738 16.216H60.4458V18.216H65.7738V16.216ZM96.2644 22.364L95.5573 21.6569L96.2644 22.364ZM96.0484 5.3L95.354 6.01955L95.3553 6.02083L96.0484 5.3ZM78.3364 1.988V0.987998H77.3364V1.988H78.3364ZM78.3364 26H77.3364V27H78.3364V26ZM84.5644 7.28V6.28H83.5644V7.28H84.5644ZM91.0444 8.792L91.7291 8.06314L91.7242 8.05857L91.0444 8.792ZM91.0804 18.98L90.3899 18.2566L90.3813 18.265L91.0804 18.98ZM84.5644 20.708H83.5644V21.708H84.5644V20.708ZM87.0484 27C91.4389 27 94.8915 25.1511 96.9715 23.0711L95.5573 21.6569C93.8213 23.3929 90.866 25 87.0484 25V27ZM96.9715 23.0711C99.5502 20.4925 100.396 17.3989 100.396 14.048H98.3964C98.3964 17.0331 97.6587 19.5555 95.5573 21.6569L96.9715 23.0711ZM100.396 14.048C100.396 11.3352 99.8329 7.55163 96.7415 4.57917L95.3553 6.02083C97.8799 8.44837 98.3964 11.5768 98.3964 14.048H100.396ZM96.7429 4.58045C93.3535 1.30935 88.9779 0.987998 86.5084 0.987998V2.988C88.8629 2.988 92.5513 3.31465 95.354 6.01954L96.7429 4.58045ZM86.5084 0.987998H78.3364V2.988H86.5084V0.987998ZM77.3364 1.988V26H79.3364V1.988H77.3364ZM78.3364 27H87.0484V25H78.3364V27ZM84.5644 8.28H86.0764V6.28H84.5644V8.28ZM86.0764 8.28C87.6051 8.28 89.1929 8.43947 90.3646 9.52543L91.7242 8.05857C89.9439 6.40853 87.6437 6.28 86.0764 6.28V8.28ZM90.3597 9.52085C91.2824 10.3876 91.9164 11.9896 91.9164 14.048H93.9164C93.9164 11.6424 93.1824 9.42843 91.7291 8.06315L90.3597 9.52085ZM91.9164 14.048C91.9164 16.416 91.0013 17.673 90.3899 18.2566L91.7709 19.7034C92.7435 18.775 93.9164 17.008 93.9164 14.048H91.9164ZM90.3813 18.265C89.0662 19.5509 87.308 19.708 85.8244 19.708V21.708C87.3648 21.708 89.8546 21.5771 91.7795 19.695L90.3813 18.265ZM85.8244 19.708H84.5644V21.708H85.8244V19.708ZM85.5644 20.708V7.28H83.5644V20.708H85.5644ZM110.69 23.84L109.806 23.3727L109.39 24.1597L110.123 24.664L110.69 23.84ZM114.326 25.748L114.671 24.8093L114.668 24.8082L114.326 25.748ZM126.134 24.092L125.427 23.3849L126.134 24.092ZM126.854 13.76L126.118 14.4375L126.127 14.4466L126.854 13.76ZM122.498 11.384L122.794 10.4287L122.787 10.4267L122.498 11.384ZM120.59 10.808L120.879 9.85064L120.871 9.84826L120.59 10.808ZM118.502 9.728L117.713 10.3419L117.723 10.3552L117.734 10.3682L118.502 9.728ZM118.79 7.352L118.105 6.6238L118.094 6.63418L118.083 6.64489L118.79 7.352ZM124.946 8.252L124.327 9.03727L125.283 9.7908L125.836 8.70711L124.946 8.252ZM127.43 3.392L128.32 3.84711L128.771 2.96555L127.894 2.50617L127.43 3.392ZM113.858 3.716L114.565 4.42311V4.42311L113.858 3.716ZM113.03 13.76L113.773 13.091L113.766 13.0834L113.03 13.76ZM116.486 15.704L116.18 16.6561L116.189 16.6589L116.486 15.704ZM118.106 16.208L117.809 17.1629L117.817 17.1652L118.106 16.208ZM121.202 17.468L120.54 18.2178L120.546 18.2226L120.551 18.2273L121.202 17.468ZM121.274 20.42L120.567 19.7129L120.552 19.7283L120.537 19.7443L121.274 20.42ZM113.354 18.8L114.041 18.0735L113.085 17.169L112.47 18.3327L113.354 18.8ZM110.123 24.664C111.947 25.9177 113.545 26.528 113.984 26.6878L114.668 24.8082C114.315 24.68 112.889 24.1383 111.257 23.016L110.123 24.664ZM113.981 26.6867C115.885 27.3861 117.449 27.54 119.042 27.54V25.54C117.611 25.54 116.295 25.4059 114.671 24.8093L113.981 26.6867ZM119.042 27.54C121.695 27.54 124.509 27.1313 126.841 24.7991L125.427 23.3849C123.655 25.1567 121.501 25.54 119.042 25.54V27.54ZM126.841 24.7991C128.815 22.8253 129.402 20.4096 129.402 18.044H127.402C127.402 20.0704 126.909 21.9027 125.427 23.3849L126.841 24.7991ZM129.402 18.044C129.402 16.2197 129.032 14.6099 127.581 13.0734L126.127 14.4466C127.124 15.5021 127.402 16.5563 127.402 18.044H129.402ZM127.59 13.0825C126.13 11.4978 124.305 10.8966 122.794 10.4287L122.202 12.3393C123.715 12.8074 125.058 13.2862 126.118 14.4375L127.59 13.0825ZM122.787 10.4267L120.879 9.85067L120.301 11.7653L122.209 12.3413L122.787 10.4267ZM120.871 9.84826C119.528 9.45536 119.29 9.1113 119.27 9.08781L117.734 10.3682C118.074 10.7767 118.7 11.2966 120.309 11.7677L120.871 9.84826ZM119.291 9.11406C119.22 9.02242 119.178 8.94233 119.178 8.648H117.178C117.178 9.21767 117.28 9.78557 117.713 10.3419L119.291 9.11406ZM119.178 8.648C119.178 8.47674 119.236 8.3203 119.497 8.05911L118.083 6.64489C117.624 7.1037 117.178 7.73926 117.178 8.648H119.178ZM119.475 8.0802C119.822 7.75414 120.348 7.632 120.842 7.632V5.632C120.112 5.632 118.982 5.79786 118.105 6.6238L119.475 8.0802ZM120.842 7.632C121.48 7.632 122.657 7.72051 124.327 9.03727L125.565 7.46673C123.491 5.83148 121.86 5.632 120.842 5.632V7.632ZM125.836 8.70711L128.32 3.84711L126.54 2.93689L124.056 7.79689L125.836 8.70711ZM127.894 2.50617C125.505 1.25493 122.575 0.447998 120.014 0.447998V2.448C122.205 2.448 124.819 3.15307 126.966 4.27783L127.894 2.50617ZM120.014 0.447998C116.844 0.447998 114.57 1.58963 113.151 3.00889L114.565 4.42311C115.594 3.39437 117.352 2.448 120.014 2.448V0.447998ZM113.151 3.00889C111.943 4.21691 110.662 6.26327 110.662 9.512H112.662C112.662 6.85672 113.685 5.30309 114.565 4.42311L113.151 3.00889ZM110.662 9.512C110.662 10.7845 110.801 12.8117 112.294 14.4366L113.766 13.0834C112.811 12.0443 112.662 10.6875 112.662 9.512H110.662ZM112.287 14.429C113.456 15.7287 115.174 16.3326 116.18 16.656L116.792 14.752C115.782 14.4274 114.548 13.9513 113.773 13.091L112.287 14.429ZM116.189 16.6589L117.809 17.1629L118.403 15.2531L116.783 14.7491L116.189 16.6589ZM117.817 17.1652C118.614 17.4062 119.189 17.5732 119.654 17.7473C120.109 17.9182 120.367 18.0644 120.54 18.2178L121.864 16.7182C121.425 16.3316 120.909 16.0818 120.356 15.8747C119.813 15.6708 119.146 15.4778 118.395 15.2508L117.817 17.1652ZM120.551 18.2273C120.812 18.4509 120.886 18.7025 120.886 18.908H122.886C122.886 18.1775 122.6 17.3491 121.853 16.7087L120.551 18.2273ZM120.886 18.908C120.886 19.2464 120.745 19.5344 120.567 19.7129L121.981 21.1271C122.523 20.5856 122.886 19.7936 122.886 18.908H120.886ZM120.537 19.7443C120.373 19.9231 119.912 20.248 118.862 20.248V22.248C120.332 22.248 121.383 21.7809 122.011 21.0957L120.537 19.7443ZM118.862 20.248C117.051 20.248 115.268 19.2345 114.041 18.0735L112.667 19.5265C114.104 20.8855 116.353 22.248 118.862 22.248V20.248ZM112.47 18.3327L109.806 23.3727L111.574 24.3073L114.238 19.2673L112.47 18.3327ZM145.98 1.988H146.98V0.987998H145.98V1.988ZM132.336 1.988V0.987998H131.336V1.988H132.336ZM132.336 26H131.336V27H132.336V26ZM145.98 26V27H146.98V26H145.98ZM145.98 20.708H146.98V19.708H145.98V20.708ZM138.564 20.708H137.564V21.708H138.564V20.708ZM138.564 16.568V15.568H137.564V16.568H138.564ZM145.584 16.568V17.568H146.584V16.568H145.584ZM145.584 11.276H146.584V10.276H145.584V11.276ZM138.564 11.276H137.564V12.276H138.564V11.276ZM138.564 7.28V6.28H137.564V7.28H138.564ZM145.98 7.28V8.28H146.98V7.28H145.98ZM145.98 0.987998H132.336V2.988H145.98V0.987998ZM131.336 1.988V26H133.336V1.988H131.336ZM132.336 27H145.98V25H132.336V27ZM146.98 26V20.708H144.98V26H146.98ZM145.98 19.708H138.564V21.708H145.98V19.708ZM139.564 20.708V16.568H137.564V20.708H139.564ZM138.564 17.568H145.584V15.568H138.564V17.568ZM146.584 16.568V11.276H144.584V16.568H146.584ZM145.584 10.276H138.564V12.276H145.584V10.276ZM139.564 11.276V7.28H137.564V11.276H139.564ZM138.564 8.28H145.98V6.28H138.564V8.28ZM146.98 7.28V1.988H144.98V7.28H146.98ZM149.95 1.988V0.987998H148.95V1.988H149.95ZM149.95 26H148.95V27H149.95V26ZM156.178 26V27H157.178V26H156.178ZM156.178 16.784L157.017 16.2399L155.178 13.4038V16.784H156.178ZM162.154 26L161.315 26.5441L161.61 27H162.154V26ZM169.894 26V27H171.919L170.688 25.3921L169.894 26ZM162.37 16.172L162.18 15.1902L160.594 15.4972L161.576 16.7799L162.37 16.172ZM165.682 14.516L166.375 15.2368L166.378 15.2339L165.682 14.516ZM165.538 4.112L164.817 4.80484L164.821 4.80986L165.538 4.112ZM156.178 6.812V5.812H155.178V6.812H156.178ZM160.354 7.748L159.647 8.45511L159.659 8.46729L159.671 8.47905L160.354 7.748ZM160.39 11.78L161.079 12.5041L161.088 12.4957L161.097 12.4871L160.39 11.78ZM156.178 12.752H155.178V13.752H156.178V12.752ZM148.95 1.988V26H150.95V1.988H148.95ZM149.95 27H156.178V25H149.95V27ZM157.178 26V16.784H155.178V26H157.178ZM155.339 17.3281L161.315 26.5441L162.993 25.4559L157.017 16.2399L155.339 17.3281ZM162.154 27H169.894V25H162.154V27ZM170.688 25.3921L163.164 15.5641L161.576 16.7799L169.1 26.6079L170.688 25.3921ZM162.56 17.1538C163.821 16.9097 165.271 16.2986 166.375 15.2368L164.989 13.7952C164.221 14.5334 163.15 15.0023 162.18 15.1902L162.56 17.1538ZM166.378 15.2339C167.792 13.8627 168.59 11.7868 168.59 9.512H166.59C166.59 11.3412 165.948 12.8653 164.986 13.7981L166.378 15.2339ZM168.59 9.512C168.59 7.39721 167.838 5.04023 166.254 3.41413L164.821 4.80986C165.973 5.99177 166.59 7.81079 166.59 9.512H168.59ZM166.259 3.41917C164.206 1.28269 161.552 0.987998 159.67 0.987998V2.988C161.388 2.988 163.341 3.26931 164.817 4.80482L166.259 3.41917ZM159.67 0.987998H149.95V2.988H159.67V0.987998ZM156.178 7.812H157.366V5.812H156.178V7.812ZM157.366 7.812C158.598 7.812 159.333 8.14171 159.647 8.45511L161.061 7.04089C160.222 6.20229 158.87 5.812 157.366 5.812V7.812ZM159.671 8.47905C159.976 8.76369 160.182 9.27352 160.182 9.764H162.182C162.182 8.81448 161.811 7.74031 161.036 7.01694L159.671 8.47905ZM160.182 9.764C160.182 10.2759 159.949 10.8069 159.683 11.0729L161.097 12.4871C161.767 11.8171 162.182 10.7641 162.182 9.764H160.182ZM159.7 11.0559C159.483 11.2627 159.131 11.4451 158.675 11.5733C158.228 11.6988 157.753 11.752 157.366 11.752V13.752C157.914 13.752 158.573 13.6792 159.216 13.4987C159.849 13.3209 160.541 13.0173 161.079 12.5041L159.7 11.0559ZM157.366 11.752H156.178V13.752H157.366V11.752ZM157.178 12.752V6.812H155.178V12.752H157.178ZM172.52 1.988V0.987998H171.52V1.988H172.52ZM172.52 26H171.52V27H172.52V26ZM178.748 26V27H179.748V26H178.748ZM178.748 1.988H179.748V0.987998H178.748V1.988ZM171.52 1.988V26H173.52V1.988H171.52ZM172.52 27H178.748V25H172.52V27ZM179.748 26V1.988H177.748V26H179.748ZM178.748 0.987998H172.52V2.988H178.748V0.987998ZM197.449 1.988H198.449V0.987998H197.449V1.988ZM183.805 1.988V0.987998H182.805V1.988H183.805ZM183.805 26H182.805V27H183.805V26ZM197.449 26V27H198.449V26H197.449ZM197.449 20.708H198.449V19.708H197.449V20.708ZM190.033 20.708H189.033V21.708H190.033V20.708ZM190.033 16.568V15.568H189.033V16.568H190.033ZM197.053 16.568V17.568H198.053V16.568H197.053ZM197.053 11.276H198.053V10.276H197.053V11.276ZM190.033 11.276H189.033V12.276H190.033V11.276ZM190.033 7.28V6.28H189.033V7.28H190.033ZM197.449 7.28V8.28H198.449V7.28H197.449ZM197.449 0.987998H183.805V2.988H197.449V0.987998ZM182.805 1.988V26H184.805V1.988H182.805ZM183.805 27H197.449V25H183.805V27ZM198.449 26V20.708H196.449V26H198.449ZM197.449 19.708H190.033V21.708H197.449V19.708ZM191.033 20.708V16.568H189.033V20.708H191.033ZM190.033 17.568H197.053V15.568H190.033V17.568ZM198.053 16.568V11.276H196.053V16.568H198.053ZM197.053 10.276H190.033V12.276H197.053V10.276ZM191.033 11.276V7.28H189.033V11.276H191.033ZM190.033 8.28H197.449V6.28H190.033V8.28ZM198.449 7.28V1.988H196.449V7.28H198.449ZM200.338 23.84L199.454 23.3727L199.038 24.1597L199.772 24.664L200.338 23.84ZM203.974 25.748L204.319 24.8093L204.316 24.8082L203.974 25.748ZM215.782 24.092L215.075 23.3849L215.782 24.092ZM216.502 13.76L215.767 14.4375L215.775 14.4466L216.502 13.76ZM212.146 11.384L212.442 10.4287L212.435 10.4267L212.146 11.384ZM210.238 10.808L210.527 9.85064L210.519 9.84826L210.238 10.808ZM208.15 9.728L207.361 10.3419L207.371 10.3552L207.382 10.3682L208.15 9.728ZM208.438 7.352L207.753 6.6238L207.742 6.63418L207.731 6.64489L208.438 7.352ZM214.594 8.252L213.975 9.03727L214.931 9.7908L215.485 8.70711L214.594 8.252ZM217.078 3.392L217.969 3.84711L218.419 2.96555L217.542 2.50617L217.078 3.392ZM203.506 3.716L204.214 4.42311V4.42311L203.506 3.716ZM202.678 13.76L203.422 13.091L203.415 13.0834L202.678 13.76ZM206.134 15.704L205.828 16.6561L205.837 16.6589L206.134 15.704ZM207.754 16.208L207.457 17.1629L207.465 17.1652L207.754 16.208ZM210.85 17.468L210.189 18.2178L210.194 18.2226L210.2 18.2273L210.85 17.468ZM210.922 20.42L210.215 19.7129L210.2 19.7283L210.185 19.7443L210.922 20.42ZM203.002 18.8L203.69 18.0735L202.733 17.169L202.118 18.3327L203.002 18.8ZM199.772 24.664C201.595 25.9177 203.193 26.528 203.633 26.6878L204.316 24.8082C203.964 24.68 202.537 24.1383 200.905 23.016L199.772 24.664ZM203.63 26.6867C205.534 27.3861 207.097 27.54 208.69 27.54V25.54C207.26 25.54 205.943 25.4059 204.319 24.8093L203.63 26.6867ZM208.69 27.54C211.343 27.54 214.157 27.1313 216.49 24.7991L215.075 23.3849C213.303 25.1567 211.15 25.54 208.69 25.54V27.54ZM216.49 24.7991C218.463 22.8253 219.05 20.4096 219.05 18.044H217.05C217.05 20.0704 216.558 21.9027 215.075 23.3849L216.49 24.7991ZM219.05 18.044C219.05 16.2197 218.681 14.6099 217.229 13.0734L215.775 14.4466C216.772 15.5021 217.05 16.5563 217.05 18.044H219.05ZM217.238 13.0825C215.778 11.4978 213.954 10.8966 212.442 10.4287L211.851 12.3393C213.363 12.8074 214.706 13.2862 215.767 14.4375L217.238 13.0825ZM212.435 10.4267L210.527 9.85067L209.949 11.7653L211.857 12.3413L212.435 10.4267ZM210.519 9.84826C209.177 9.45536 208.938 9.1113 208.919 9.08781L207.382 10.3682C207.723 10.7767 208.348 11.2966 209.958 11.7677L210.519 9.84826ZM208.94 9.11406C208.869 9.02242 208.826 8.94233 208.826 8.648H206.826C206.826 9.21767 206.928 9.78557 207.361 10.3419L208.94 9.11406ZM208.826 8.648C208.826 8.47674 208.884 8.3203 209.146 8.05911L207.731 6.64489C207.273 7.1037 206.826 7.73926 206.826 8.648H208.826ZM209.124 8.0802C209.47 7.75414 209.996 7.632 210.49 7.632V5.632C209.76 5.632 208.631 5.79786 207.753 6.6238L209.124 8.0802ZM210.49 7.632C211.129 7.632 212.305 7.72051 213.975 9.03727L215.214 7.46673C213.14 5.83148 211.508 5.632 210.49 5.632V7.632ZM215.485 8.70711L217.969 3.84711L216.188 2.93689L213.704 7.79689L215.485 8.70711ZM217.542 2.50617C215.154 1.25493 212.224 0.447998 209.662 0.447998V2.448C211.853 2.448 214.467 3.15307 216.614 4.27783L217.542 2.50617ZM209.662 0.447998C206.492 0.447998 204.219 1.58963 202.799 3.00889L204.214 4.42311C205.242 3.39437 207.001 2.448 209.662 2.448V0.447998ZM202.799 3.00889C201.591 4.21691 200.31 6.26327 200.31 9.512H202.31C202.31 6.85672 203.334 5.30309 204.214 4.42311L202.799 3.00889ZM200.31 9.512C200.31 10.7845 200.449 12.8117 201.942 14.4366L203.415 13.0834C202.46 12.0443 202.31 10.6875 202.31 9.512H200.31ZM201.935 14.429C203.105 15.7287 204.822 16.3326 205.828 16.656L206.44 14.752C205.431 14.4274 204.196 13.9513 203.422 13.091L201.935 14.429ZM205.837 16.6589L207.457 17.1629L208.051 15.2531L206.432 14.7491L205.837 16.6589ZM207.465 17.1652C208.262 17.4062 208.838 17.5732 209.302 17.7473C209.758 17.9182 210.015 18.0644 210.189 18.2178L211.512 16.7182C211.074 16.3316 210.557 16.0818 210.005 15.8747C209.461 15.6708 208.795 15.4778 208.044 15.2508L207.465 17.1652ZM210.2 18.2273C210.461 18.4509 210.534 18.7025 210.534 18.908H212.534C212.534 18.1775 212.248 17.3491 211.501 16.7087L210.2 18.2273ZM210.534 18.908C210.534 19.2464 210.394 19.5344 210.215 19.7129L211.63 21.1271C212.171 20.5856 212.534 19.7936 212.534 18.908H210.534ZM210.185 19.7443C210.021 19.9231 209.56 20.248 208.51 20.248V22.248C209.981 22.248 211.032 21.7809 211.66 21.0957L210.185 19.7443ZM208.51 20.248C206.699 20.248 204.917 19.2345 203.69 18.0735L202.315 19.5265C203.752 20.8855 206.002 22.248 208.51 22.248V20.248ZM202.118 18.3327L199.454 23.3727L201.223 24.3073L203.887 19.2673L202.118 18.3327Z" fill="white"/>
</svg>
